/* XPM */
static char *_a8fbd80ebcb4ce8bbcd863e0a7c0926wXnGIaavRhY6Rvvf[] = {
/* columns rows colors chars-per-pixel */
"64 64 205 2 ",
"   c #352D1A",
".  c #3C331D",
"X  c #3C3323",
"o  c #43361A",
"O  c #453919",
"+  c #423524",
"@  c #453B25",
"#  c #4A3D24",
"$  c #453C2B",
"%  c #493D2B",
"&  c #453D32",
"*  c #493F33",
"=  c #4B4125",
"-  c #4D432C",
";  c #47422C",
":  c #534427",
">  c #53462B",
",  c #53492D",
"<  c #594A2D",
"1  c #4D4434",
"2  c #4D443B",
"3  c #4A4636",
"4  c #524634",
"5  c #544A34",
"6  c #594D33",
"7  c #504738",
"8  c #544C3A",
"9  c #5A4E3C",
"0  c #575034",
"q  c #5C5136",
"w  c #57513B",
"e  c #5C523C",
"r  c #5F583E",
"t  c #635435",
"y  c #645B36",
"u  c #62553D",
"i  c #645A3E",
"p  c #6A5B3D",
"a  c #6B603E",
"s  c #564C44",
"d  c #594D45",
"f  c #5D5442",
"g  c #5F5845",
"h  c #575348",
"j  c #5D564A",
"k  c #5F5849",
"l  c #565042",
"z  c #625643",
"x  c #645A44",
"c  c #6A5E44",
"v  c #625749",
"b  c #645C4A",
"n  c #6A5E4B",
"m  c #715E42",
"M  c #645C51",
"N  c #6A5F52",
"B  c #666046",
"V  c #6C6144",
"C  c #66604C",
"Z  c #6C624C",
"A  c #716446",
"S  c #72654C",
"D  c #756A4D",
"F  c #7A6C4E",
"G  c #756A46",
"H  c #7D744E",
"J  c #676051",
"K  c #6C6453",
"L  c #6F6953",
"P  c #6C6559",
"I  c #6E695A",
"U  c #726653",
"Y  c #736A55",
"T  c #7A6D54",
"R  c #73675A",
"E  c #756C5B",
"W  c #7A6E5B",
"Q  c #777056",
"!  c #7D7354",
"~  c #77715B",
"^  c #7C725D",
"/  c #7F795F",
"(  c #746D61",
")  c #796E60",
"_  c #777161",
"`  c #7D7462",
"'  c #7F7962",
"]  c #7D746B",
"[  c #7E796A",
"{  c #7F7B70",
"}  c #81754D",
"|  c #817357",
" . c #82755C",
".. c #847A5D",
"X. c #8A7C5D",
"o. c #897B54",
"O. c #817663",
"+. c #837A65",
"@. c #8A7D64",
"#. c #82776A",
"$. c #857C6A",
"%. c #897E6A",
"&. c #907F61",
"*. c #847D71",
"=. c #8A7F72",
"-. c #8F835D",
";. c #908557",
":. c #908359",
">. c #878066",
",. c #8C8165",
"<. c #86806C",
"1. c #8B826C",
"2. c #8E886E",
"3. c #928565",
"4. c #988567",
"5. c #92856C",
"6. c #94896C",
"7. c #9A8B6D",
"8. c #9A8F62",
"9. c #9F906F",
"0. c #9D9066",
"q. c #878070",
"w. c #8C8473",
"e. c #8F8874",
"r. c #878378",
"t. c #8D8579",
"y. c #8F897A",
"u. c #928673",
"i. c #938A74",
"p. c #9A8D74",
"a. c #93867A",
"s. c #948C7A",
"d. c #9A8E7B",
"f. c #9C9175",
"g. c #97917C",
"h. c #9B927C",
"j. c #A3976F",
"k. c #A79C6E",
"l. c #A29374",
"z. c #A69977",
"x. c #AA9E75",
"c. c #A1957C",
"v. c #A89779",
"b. c #A39A7D",
"n. c #A99B7D",
"m. c #B0A379",
"M. c #968E82",
"N. c #9B8F83",
"B. c #979281",
"V. c #9C9482",
"C. c #9F9984",
"Z. c #9D958A",
"A. c #9F9B8F",
"S. c #A19683",
"D. c #A39A85",
"F. c #A99D85",
"G. c #A19689",
"H. c #A59A8D",
"J. c #A59C8B",
"K. c #AA9E8B",
"L. c #A59D91",
"P. c #A99E91",
"I. c #A29791",
"U. c #ACA284",
"Y. c #A6A08D",
"T. c #ABA28D",
"R. c #AFA88C",
"E. c #B3A385",
"W. c #B2A58C",
"Q. c #B3AA8D",
"!. c #B6AB89",
"~. c #A6A092",
"^. c #ADA691",
"/. c #ACA492",
"(. c #AFA895",
"). c #AEA69A",
"_. c #B1A693",
"`. c #B3AA94",
"'. c #BAAD95",
"]. c #B1A699",
"[. c #B4AC9A",
"{. c #B9AE9C",
"}. c #BAB196",
"|. c #BBB29C",
" X c #B5B09A",
".X c #AEA4A2",
"XX c #B6AEA3",
"oX c #BCB4A2",
"OX c #C2B69C",
"+X c #C4BA9D",
"@X c #C8BB9A",
"#X c #C0B5A5",
"$X c #C3B9A4",
"%X c #C9BEA3",
"&X c #C5BCAB",
"*X c #C9BEAB",
"=X c #C0B4A8",
"-X c #C5BDB1",
";X c #CCC4A7",
":X c #CBC2AC",
">X c #CCC4B1",
",X c #D0C7B6",
"<X c #D2CAB5",
"1X c #D8CDB9",
"2X c #E5DECE",
/* pixels */
"O.i.%Xf.X.7.l.F d.W + E R K e.L ^.^ 7 R z % 1.D F z.y q 1.S.H.g Y / L d.K 2 *.).H.).j ' _ E C b 7 +.W Z T %.Y +.n W C n Y +.n ; ",
"^ +.f.n.X.X.t T D.S.K H.s.K.^.Y ^ D.R R w.K K.@.6.!.V q e Z ) s.i.i.e R a.7 1 ` b ) M g f /.#.Y %.K.U W U D.V +.^ F.^ g.u.w.E g ",
"h.1.T Q.n.z.3.# u.W z O.v `.^.i.' ^.|.(.=.%.` e Z n.V p.+.T.f $.B.g.+.` K.%.J.w.O.v H.r.k ` w.b E u.%.D.e 1.Y E n ^ 8 z ^ L J.V.",
"` s.T V 6.F.OXS K.S.n v % $.z ^ n L ` E z z u.Y q f.6 f.+.:X%.$.J $ n +.Y D >.+.h.K H.Z.$.$.^.n %.1.b %.Y i.O.x $.w.u.B.J.f N ) ",
"w.K '.F.f.F.b.T V ^ f =.^ V.w.i.+.u.` J./.8 ` $.i.OXZ 5.^ 1.$.B.t.s.O.+.p.....c.p.+ ) N.$.b S.Z 5 u.Z 4 x x %.1.7 K O.t.P.) 1 X ",
"[.U D.S.`.W.b. .S.^ J.` g.V.' Y ~ C ~ e.G.` oXK.U f.! Y ^ V.` e.t.=.W ^ f.l.! f.5.z f d K z O.W E oX%.S.^ i.s.{.9 R n n $.[.V.$ ",
"s.E 1.@.@.f.OXZ i.U u.s.u.V.e.; <.1.g Y ` I ' #.d.w.i.u.+.i.K s.R /.Z +.f.7.= u O.W s.S.7 9 U W 5 E f Y n z @ 1.x ` n ` ` oX{.7 ",
"v $.%.x 5 e Y 5.+.z ^ ` s.J. XC f.[.e.E R $ X ) /.D.w e i.1.w g u.{.W V p.>.Z ^ $.W ^ O.+.` # n ^ w.D.v O.^ x ^ ^ +.c 5 %.K.|.e ",
"u./.&Xd.1.i.p.Y w.K.K.g w.J.T.C +.g.g.+.#./.1 G.w.Z K.U <.D.h.Y w Y Z z s.+.w.e.J.d.d.v Y c.@.- D.J.g.e e @.x ^ p.3.| 5 T c.'.S ",
"` 4 n Y K.n Z ^ 8 g z 8 w.C.~ w . 8 $.` E ].J 8 ` u.T.g.5 ^ D.D.f.B e ^ e.K L.] a.V.S.z i.c.b.- - $.' s.@.@.T t T '.D u > F Q.| ",
">XD.%.u.K.+.K.1XF.w.+.5 V.`.8 n Y V.w.s.V._.#X` d.i.d.#XE ^ h.D.;Xi.i.oX/.b Z.Z.] =.i.z h.W.c.1.Y d.U _.@.@.l.E.D X.7.X.D F 6.| ",
"D.O.1.^ ^ z ^ O.<.`.{.; Z T.+.L B.[.Y.' $.{.[.W u.w.d.*XY u.T.D.F.+.h./.).& 1 *.=.$.Y 5 e ....q z g.z u u 6 < T X.@.t ..V > S ! ",
"h.^ W ^ s.9 O.W n _.:XZ C ^.V.` D.].oXd.+.|.[.Y W O.J.*Xn u.'._.^.e $.V.T.b O.E 9 9 v u i # O O . - 5 t S A @.: m T G < 6.T T `.",
"D.@.x i.D.Y i.[.e {.<X1.X 8 oXB.e.&X{.T.%.u.u.%.w.g z W Z z  .S.J.g - E Z @ +.W +.1.W 6.OX| p X.c x S F F | 7.&.X.X.E.A p.@.W 1.",
"u T S W D.w.9 T.w +.h.<.$.Z ' b X ) #.J n ^ @  .T. .z W 1.O.n 1.w.V.d.D.V V n.D  .%.+.z T  .X.@.T X.S p D v.4.E.A X.c.@.'.d.H.K.",
"T T.p.Z @ ^ 1.D.` w.Z g s.K.u.u.^ e.^ +.$.g.U <._.i.1.1.%.h.E $.$.O.S.f.A F !.,.^ 5.d.%.@.| l.T 6 | | A t X. .5.m p p.| 5.R d.J.",
"d.R.K.^.R 1.R s.+.1.$.E C J.$.$.s.u.E n Y L $ ; >.Y e s.+.D.8 1 ) n 6 T # X.5.n.5.+. . .S o c c - c D p S 7. .@.p.6 l.@.S u.5.+.",
"T.(.a.H.V.|.` u.' ' R V.g J.B.$.$.$.E +.` [.#.' <.f.v ! <.R.f E b w.S 7.S F l.7.5.F.@.@.S.%.S +.V S V V : p.5.c 7.t p.l.% 4 Y 5.",
"B.P.B.L $.[.[.S.E +.$.K.I V.B.{.1.$.b E g w.g 8 z 1.% $ ^ u.b V.v i.c ,.T p m.o.D x Z U E #.Y +.x U 6.@.c u %.S A O 7.p.W n U 5 ",
"E H.B.v 1 9 g 5 z 4 . u.n K b E n i.$.z Z v ` ` Y > # 5  .S + U x i.V S c > o.G U.W ^ D.a.O. .5.F.Y 1.c u S %.@.n.5.S @.d.W T.S ",
"$ $ Y ^ 1.+.6.,.+Xn.V @...C % F.S ,.`.i.U.+.e  .z.6.V 5.@X6.c f.p.f.6.n.f.@.3.c a.#.d._.'.5.p.T i.^ p.6.x z h.V c.p.@.c.d.4 %.+.",
"&XV.V.w.D.>.| b.;Xb.>.Q. .W.C U.b.V W V x 1.O.T 3.7.p  .U.,.q b.O.T.6.3.W.1.| %.E d W T 1.|  .@.z Y :X5.O.S W T u T ^ K._.U d.z ",
"].a.e.f ^ u.K.p.`._.S W x U 5 e p.@.R W %.C W z 7.f.c 3.W.6., ^ R U T Y ^ c >.0 +.8 e Z 5 ,.v.E.+.n $XV % U O.S.e  .x u.` Y |.u.",
"` U U J.` K %.T.*XOX+.f.p.@.f.@.D.S.P.w.K K f K p.| i.i.c.%XS.g.].G.S.O.i.O.+X6.i U Z ,.1.S z.n.@.g s.$.Z 8 Y %.x c  .S.+.7 O.1.",
"b.T.Z i.f.f.1.c O.T q i T F F f.'.g.1 K B.V.t.L h.,.Z Z 5 Y ^ /.H.) 8 Y u.S Q.b.+.^ , 5 4 e t E.%.g.V.Y [.1.U '.@.%.u Z ^ 1.b K ",
"b.Q.f.0 Z Z 1.+.1.c.c.5.= O X.6.+.^.V.8 s.$.M.+.R.p.n T.6.0 e u.w.O.O.i.^ i.6.}.e 1.T.F.e e o A e $.#.$ z +.- @.T W ^ 1.x `.d.s.",
"^ +.D.h.u.w.V.` R U $.'.^ 6 n.F.T./.J.` 3 B.b g >.V 4 +.f...i ^ g.V.b...V | ,.i.$.s u.1.Y i.c i.+.Z d.U K u.u p.i.%.z 1.S %.w.J.",
"/ 2.1.D.$.O.H.R $.n R i.n - p.! <.e.t.[.8 /.' ` T.2. .+.^ ..! Y w ^ p a D > | Y b 8 z X 1 s.E D.g.` #XS.+. .> S Y i.T %.'.D.s.` ",
"i.F.p.+.1.+.c %.D.+.d. .Y Z <.D.g.q.t.).; P M *.V.s.J./.K.i.C.&XY.$X1.1.%XX.j.@X^ W J.v 2 ] b L 1.n S.w.W 6 i c K.i.d.c p.p.O.W ",
"1.c.5.<.'.}.@.S U.6 1.+.1.+.K V.{.B.a.~.*.[ j M E K 1 7 ^ g 8 X V.&XS.| '.F 0.x.7.^ _.e.M.Z.XX' <.u.s.u.$XT ,.c Y Y O.- e Y W Y ",
"u.J.s.T f.6.V F ;X>.1.` e.' & I V.<.s.8 u.V.E $.D.f.h.^ p.p.u.` b ' <.V ..| 3.9.S.1.i.8 v I J.~ +.h._.U Y ..5.p.S c.F.c.U.6.O.` ",
"9 ) U u.+.|...V +X@.x u.{.s.P y.$.s.V.w.+.s.' $.e Z U W '.^ Y g.L.J.U f.W.T 7.| W.W K.w.<.1 D.K Y +.%.W 5.| p.6.%.d.F.@.W.c.U u.",
"b d.z %.v V.+.w +.g.$.f [.` E B.R Z L w.' C.Y %.z +.U v n n 8 8 E 1.> 6 Y e V u n J.,Xd.oXg 1.~ z 5.[.n ^ W c.u.^ W O.z % +.U Z ",
"%.D.V._.+.E $.T.^.$.J.Y V.e.1.$.V.&X~ T./ +.^ |.$.S.S.$.w.s.s.$./.i.<.6.1.6. XD.#.Z a.b Z ^ / x +.+.|.p.O.U u.d.R O.S.S.n +.u.- ",
"V.` W %.$.(.' ].{.E ' ` {.J.oX` 1.V.Z 1.+.f. .n 9 ^ f z U 9 V.L O.+.i.1.@.^ b.u.u.O.#.V.E V.^.x E W ^ +.h._.D.u.K.+.d.K.U %.Z W ",
"{.g.R K L f ^ V.s.J.oXf a.f ` R $.n $.V.5 _.F.i.U /.J.u.S.` R u.$.n p.T  ...! S.s./.s.e.$.Z ].V.b S.K.+.e O.%.+.i.U n u.e z % 1 ",
"n i.{.Y ^.#.Y Z f 8 e.` {.oXs.S.V.#.1.$X`  X+.+.g ^ /.V.%.B.Z ^.|.+.F.+.+.`.$X'.1.E w.w.L C V.J.g ` Y $.S.F.f.Y 1.5.i.T.p.T %.z ",
"Z Z K.Y $.$.T.{.s.w.V.9 u.s.1.{.$.L n K ` $Xi.x W 9 w./.O.Z u.u.D.C V Z S ^ 5.+.1.$.b (.I e.g.E K J.$.n u.5.Y x S S x S W.D.'.u.",
"K.Y +.g K % Y Y ^ +.S.W #.R 8 $.1.s.n C ^ U %.d.J.Y W S.`   %.h.D.b.V C n u +.%.T.T.k V.P E V.L b #.u.% @ D.+.S W.T p.Y 1.`.i.Y ",
"R.s.1.i.{.' V.` R w.` #.].oXB.V.L +.g.Y d.i.Y +.s.Z 9 s.` 8 O.{.1.c.|._.f.S.1.%.w.$.L d.].J.#.J.H.$.) w.e F.i.T }.D  .Y +.T.d.z ",
"{.$.+.; +.v e.{.V.oXd.f ` s.V.oXs.f e 8 e  .T W S._.` V.V.` $.D.f.+.i.1.f.[.w.1.$.a.v g ' y.M.J./.B.E 1.e c 1.Y ..p.c.u @.i.D.U ",
"T.E D.T.' d.` ` E s.B.B.$.8 ' a.V.<Xw.`.x @.V %._.K.s.%.` ^ v <.c D 1.f.i.1.1.[.D.^.^.^ v g I #.L $.b V.T.U i.OXp.c.|.F.9 p.u.9 ",
"s.u.oX&X$.' {.a.Z ` +.w.|.1.D.+.Z u.^ F.S 6.K.O.^ f %.S.g.K.^.<.i c i D i.d.z u.<.+.s.1.w.#.M.J.w.$.n 1.D.C d.D.U u 5.%.Z 5 w.V.",
"T.D.{.|.V.8 #.E K J +.K ` e U n @ B.^ ` ! 0 U 1.$.h.^ ^.1.V.C.<.i.Q.i.x h.D.g.u.Y v K $.g b J J w.w.K w.O.Z O.+.S.Y `.%.S.U 7 D.",
"d.g.$X(.{.1.e.1.L J.d.n ^ c  .:X5 K.i.1.c.f.z i.$.D.1.+.Y R D.' ..f.S z ^ U 1.$X1.f.<.>X' e.$.v J.` n <.$.z O.S.|.u.^ Z ^ W f #.",
"s.e ' K Z g ` f n Y g K _.@.i.c.$.z Y U e ^ C # Z i.u.D.K.` s.e.T 6.p.<.u.U U S C F.Z r L ' g f K.<.w n z ` D.w.s.s.` 8 d.O.B.].",
"&XJ.(.e.e.J.a.G.oXV.s.^ D.p.T.V &Xw.` T.i.+.p.Y 4 %.+.^ ` E <.i.6.p.1.T.^.^.$XU ' h.Q.- x 1.b v ` +.1.d.+.n w.J.s.V.#XW $.J u.u.",
"&X' +.$.+.w.) R $.d.$Xf.f.b.p.Z $Xf.f.[.D.D.f.D.O.+.K.V.D.+.v C V D S D ` e i.f.f.,.f...f.K.u.+.D.Y ` [.h.n 1 Y %.u.{.O.` W K D.",
"&XC.oX^.u.V.a.K ` %.'.W.5.Q.n.p R.i.i.T.+.1.D.i.1.Y 1.T.K.g.C.<.U...U.Q.5.i.@. .7.8.x.y T S ^ ` ' f L ` w.Y d.n @.%.`.1.S.S.Y W ",
"C.1 /.`.$.s.V.s.D._.OX'.p.!.U.V f.D.f.:X<.c F.Y W T.K.D.T.$.V.+.+.......@.5.%.| :.;.k.H 6.U ^ s.` Z.J.f $.^ i.Y Y V 5.V p.i.s.u.",
"+.f b L Y E b Z 8 +.<.F.T @.W.e ! Y 1.|.C Y 1.W z +.` E L W $.+.^ Q f.F.W K n V a } -.H c.Z %.D.#.~.oXb d.Y $.i.f.i.h.<.O.O.K /.",
"R ^ $.s.$.J.Y K.1.1.e S F.5.i.f.^ e.+.T.^ C.'.O.$.&X1.K.w.D.D.$.`.` E i.w.oXK.5.X.G 6.Z D.1.z 1.R B.e.J L V.i.Y U +.+.D.%.g.Y ` ",
"w.a.b ` ^ g.1.i.$.T.h.+.S.1.F.i.K Y w.V.a.V.oX` B.&Xw.' #.n B.L r.V./.K.n S.&Xi.| 6.@.U V.w.[ w.J H.a./.^ /._.w.O.i.e e g ].a.$.",
"a.J.V.V.u.1.R.g.^ h.%.D.1.Y /.g.Z g ^ ^ R #.J.R e.>XS.$.$.#.` ~.t.M +.u.5 1 W z e ! 5.Z J.E C.(.1 ) ` q.$.V.d.d.D.>Xg./.L E y.[ ",
"=.a.$.$.d.f Y ` e ^ n ` R e.a.8 B.K e s.+.1.O.R n u.O.w.1.V.E Y t.K <.f.1.,...@ f.>.U Y ' f z g.b ` L J L #.9 R L +.R t.E l I M ",
"G.t.` d.J.1.oX{.f.D.` E H.[.-XE /.].Y K.$.`./.H.#.' O.a.$.V.^./.v ^ F.6., D U.i p.5.^ a.(.w.2.C.` oX{.B.S.T.s.$.<.J._ E 1 I { h ",
"=X*X#.d.V.1.s.f.V.`.`.w.J.oX[.$.C.V.1.w.n v 1.w.[./.` D.K.D.T.&X` u.R.Q.A ! f.- c U ` r.t.( s.J.P ) #.$.' v $.s.L +.V.a.k { *.( ",
"[.].#._.d.W h.U ^ +.8 R B.Z.-X*.J.h.+.V.`.+.f R E E / ~ |.^.i.`._ w.Q.U.S c T e D.d.J #.( 2 s.V.[ K k /.' E g K _.D.t.' I A.( ] ",
"S.G.R H.w.` :X1.T.V.$.w.r.t.L.L <.p.+.Y E L 1.e.$.s.J.b  X:Xi.&XK b i.D }.f.Y % d.w.h I..X*.*.[.s.(.b J v V.oXY ` %.#.s.P L.P r.",
"f R s.Y . Z i.e V.` e.e._ B.t.#.V.Z ` h.w.L E C L ^.&XK n D.g.V.k e.d.^ {.V.#XJ.7 z 8 2 d ] K e.J R J q.K e s.S.d.`.V./.r.I 2 t.",
"K.d.{.E $.Z e $.w.` 1.D.a.B.V.$.1.f.` ^ +.E e.<.e.L w.s.U n oXd.k ) b R B.J $._.+.+.N K s M 1 ` V.L +./.n g.g x E Y ' $.J.&X3 8 ",
"` +.K ^ $Xf.v T./.g E u.b w.(.u.! >.s.g.<.` L J [ ` a.b u.R &Xt.r.P d.L d.a.$.` u.i.i.W s.*X1.5 y.) J e.v `.U Z g.W b ` #.2X) b ",
"s.+.g.+.oXu.J g.+.g.E $.K T.>XV.^ f.+./ ' a.w.B.P I B.R L f ' E K k a.#.d.T.s.d.1.b.F.c w.1.}.8 8 a.w.$.^ x z - Z O.^.D.w.>X` M ",
"x C U n u.` 8 C.n E g.$.~ C a.$.C e Z / v ` E M.B.s.I *.J t.$.B.y.j [ ` b Y n d...7.b.e +.>...x E Y.J.$.K.E <.x Z w g.V.' `.t.) "
};
