/* XPM */
static char *_d56ee8409504aace434ca2a599dda4afI5ulMmHzS5fGuo4[] = {
/* columns rows colors chars-per-pixel */
"64 64 252 2 ",
"   c #0B0000",
".  c #160901",
"X  c #1D130B",
"o  c #191411",
"O  c #27180B",
"+  c #2C1D13",
"@  c #241C19",
"#  c #261C16",
"$  c #301E12",
"%  c #301909",
"&  c #37230B",
"*  c #2D2212",
"=  c #2C231B",
"-  c #2A251B",
";  c #33241C",
":  c #36291D",
">  c #3C2B1B",
",  c #392616",
"<  c #2C2321",
"1  c #292827",
"2  c #332621",
"3  c #352A24",
"4  c #3B2D23",
"5  c #342C29",
"6  c #3B2E2B",
"7  c #3C3124",
"8  c #3D332C",
"9  c #36332B",
"0  c #3C3532",
"q  c #3D3935",
"w  c #3A3637",
"e  c #432C18",
"r  c #47311D",
"t  c #412F26",
"y  c #443324",
"u  c #4B3625",
"i  c #4D3923",
"p  c #43352C",
"a  c #48362B",
"s  c #45392E",
"d  c #4B3B2C",
"f  c #443822",
"g  c #533D2C",
"h  c #563B23",
"j  c #423632",
"k  c #443B34",
"l  c #4B3C34",
"z  c #453D3A",
"x  c #4A3E3A",
"c  c #403738",
"v  c #523F32",
"b  c #4E402E",
"n  c #57442F",
"m  c #4D4135",
"M  c #46423C",
"N  c #4C423C",
"B  c #4B453B",
"V  c #544334",
"C  c #53453C",
"Z  c #55493D",
"A  c #5C4B3D",
"S  c #5A4636",
"D  c #644934",
"F  c #634C3C",
"G  c #664A37",
"H  c #6C533C",
"J  c #63513D",
"K  c #694B33",
"L  c #423D41",
"P  c #4C4442",
"I  c #4D4944",
"U  c #4D4A4A",
"Y  c #484347",
"T  c #524642",
"R  c #544A44",
"E  c #5B4D43",
"W  c #544D4A",
"Q  c #5A4E4B",
"!  c #564646",
"~  c #5C5145",
"^  c #55514D",
"/  c #5C534C",
"(  c #59554B",
")  c #584E51",
"_  c #555352",
"`  c #5C5452",
"'  c #5E5A55",
"]  c #5B5658",
"[  c #5D5B5A",
"{  c #545559",
"}  c #4A5058",
"|  c #614E43",
" . c #644F46",
".. c #635344",
"X. c #6A5543",
"o. c #6C5943",
"O. c #63544C",
"+. c #69554A",
"@. c #64594E",
"#. c #6B5B4C",
"$. c #625A47",
"%. c #725D45",
"&. c #725C4A",
"*. c #775A46",
"=. c #625653",
"-. c #645B54",
";. c #6B5D53",
":. c #645C5A",
">. c #6A5E5A",
",. c #655756",
"<. c #715E53",
"1. c #705F58",
"2. c #6C614C",
"3. c #75624E",
"4. c #7B634D",
"5. c #7B6548",
"6. c #6D6155",
"7. c #66615C",
"8. c #6C635C",
"9. c #6A655A",
"0. c #736355",
"q. c #7B6554",
"w. c #72645B",
"e. c #79665B",
"r. c #75695D",
"t. c #7C6B5D",
"y. c #7A6A54",
"u. c #77705E",
"i. c #5B5E63",
"p. c #635C62",
"a. c #656263",
"s. c #6C6562",
"d. c #6D6964",
"f. c #6C646A",
"g. c #6D696A",
"h. c #62656A",
"j. c #726662",
"k. c #746B64",
"l. c #7A6D64",
"z. c #746D6A",
"x. c #7A6E6B",
"c. c #766763",
"v. c #7D7266",
"b. c #76716C",
"n. c #7B726B",
"m. c #767166",
"M. c #736E71",
"N. c #757372",
"B. c #7C7472",
"V. c #7F7974",
"C. c #7C787C",
"Z. c #666D72",
"A. c #846C56",
"S. c #8A755C",
"D. c #86745B",
"F. c #8E6F57",
"G. c #806E63",
"H. c #826F68",
"J. c #837364",
"K. c #8A7563",
"L. c #8C7A65",
"P. c #83756C",
"I. c #857A6D",
"U. c #8C7B6D",
"Y. c #877768",
"T. c #937B63",
"R. c #937D6B",
"E. c #987C65",
"W. c #827572",
"Q. c #847A73",
"!. c #8A7D74",
"~. c #847C79",
"^. c #8A7D7C",
"/. c #887672",
"(. c #907F77",
"). c #8E816D",
"_. c #94836C",
"`. c #9A836C",
"'. c #9A8264",
"]. c #8D8175",
"[. c #85827B",
"{. c #8C837B",
"}. c #888377",
"|. c #948374",
" X c #9A8674",
".X c #9C8A74",
"XX c #93857C",
"oX c #9C8C7C",
"OX c #98887A",
"+X c #9C917B",
"@X c #A48D75",
"#X c #A58D78",
"$X c #AA937D",
"%X c #A4927C",
"&X c #B1947E",
"*X c #B39A7E",
"=X c #A3846B",
"-X c #827E82",
";X c #8C8582",
":X c #888684",
">X c #928683",
",X c #938B83",
"<X c #9B8D84",
"1X c #948C8B",
"2X c #9C8F8A",
"3X c #9D9184",
"4X c #9D928A",
"5X c #949187",
"6X c #9A9593",
"7X c #968D92",
"8X c #A18E80",
"9X c #A39484",
"0X c #A3958C",
"qX c #A49A8C",
"wX c #AC9B8B",
"eX c #AA9784",
"rX c #B49C87",
"tX c #AA9D95",
"yX c #A59A92",
"uX c #B29F91",
"iX c #ADA18F",
"pX c #B3A28C",
"aX c #BCA38B",
"sX c #B9A688",
"dX c #ACA399",
"fX c #A9A297",
"gX c #B3A393",
"hX c #BCAC95",
"jX c #BBAB9B",
"kX c #B7A696",
"lX c #B9ACA4",
"zX c #B4ACA4",
"xX c #C2A78C",
"cX c #C5AB96",
"vX c #C4B19C",
"bX c #CBB49C",
"nX c #C8B397",
"mX c #D5B89D",
"MX c #C4B08D",
"NX c #CCB7A3",
"BX c #C8B8A7",
"VX c #D5BBA5",
"CX c #C6BCB2",
"ZX c #D1BEB0",
"AX c #E0BEA2",
"SX c #D9C4AC",
"DX c #DAC8B6",
"FX c #CEC2AF",
"GX c #E5CDB7",
"HX c #E7CFB5",
"JX c #EADAC9",
"KX c #E1D7CD",
/* pixels */
"] x.s 0.XXz.] U s.N / W.R ! W 7.C.:.L ` x c.@.r.+.O.P.O.R 6.>.k.d.d.6X>.8.j.6 2 p C C =.>.=.j 6 6.P.tX>Xs.=.>.W.s.] B.` j ` c.E ",
"N.~.p J.{.z.U f.x.z Q >.` P x.B.=.,.Q s.T / P.J...E r.l 6.v.T / 7.9.;X:.j 2 x T C E R {.k.x.6 6 j.;.!.Q.,.W ,.Q W W B.:.x z.(.+.",
"a.B.p e.P.x.z.[ W T ,.j.x ' W.s.B.:.` =.l P.<Xr.l.r.C E 4XP.k.z.k M >XT =.E p w.l.I.z.1Xk.k.` ` T n.>.N ` ,.Q ) z.^ W.P ~.B.w.lX",
"z.k.; e.w.>.s.a.' ` z.B.W :.^.B.^.:.Q j 3 dXzXE #.E l l.l.m x.8.Z :.!.p P.!.C R j.n.{.{.,.k.>Xz.j x.^./ P =.,.) d.` k.,.x.` >.yX",
"d.n.V t.P.;.P Y g.s.z.B.s.j.;Xs.;Xx.j.j x <X!.w.P.Z E 0.@./ @.l ~ m I.6.Z @.;.8 >.:.:.k.7.k.:.z 0 =.>X=.W P x ! T :.Q Q :.W x.j.",
"x.-.t q.|.E ` _ >.:.P x.d.d.z.>.j.k.:.x.@.@.P.!.;.l O.w.6.r.l.R B m r.E E Z P.{.8./ ` n.T R j.3 =.B.lXj.7.W ! W j T =.! N N :.p.",
",Xc.V R.J.O.>.' N >.>.k.B.~.n.k.Q.-.-.j.p ~ ].U.w.l ;.<Xc.n.>XC s / dX/ w.6.k m k =.=.~ 2 k /.O.Q k.x.P -.-.! 8 l S l E T Q z 6 ",
"/ m X.*.F | m T Q / -.N / =.T l.E x k 4 C Z E w.!.s l C 8 l.6.Q = r.lX!.C s 8 s T j 8 2 = 4 + : E j.T 8 2 2 3 4 t > + ; ; ; < @ ",
"j + e H e % O.n.6.Z 2 Q / 3 E E l 4 8 x T E w.r.E p p Z C l k k ! B.W.n.P.XX4X4XW.8.@.l...V t.R.e.XXl.O.l.w.w.@.d &.<.E v 4 x Q ",
"p a `.xX&XD Y.O.R x 2X2Xn.Z V |.w.@.P.l.l.O.E ;.r.w.P.w.=.;./ @.~.B.V.z.:.5XV.9.8.=.n.|.J.L.NX@XY.J.c.C <.P.!.+.$XbXJXcXR.G. .j.",
"p #.rXVXVXSXwXU.!.<Xl.w.E ;.0XZX;.l.w.l.].E !.<Xr.w.c.x E p ;.k.d.1X;XI ` / [ R k.z.l.0. X`.#XA.K.&.C l ;.O.O.;.NXHXDXrX XK.H./.",
"=.0.$XVXcXbXoX0X].6.p E C C 8XkXw.m l.P.O.6.O.P.n.P.P.m l ~ XX=.^ a.' 7.9.8.^ V.s.:.@.S A 4.*XE.G F E G.t.S R R %XGXK.g D D.P.(.",
"` Z rXHX&XeXJ.w./ 3 N 6.~ Z A gXA O.P.;.;.#.;.~ w.P.<Xs + w.qXc.` s.,.R :.8.R I >.B.z.@...S.mX=XK D ;.c...A j C 4.`.y X.g F v ! ",
"s.6.t.E.G X., + N 8 R z.~.p G.kXV r.E 0.| V +./ w.n.<Xl . E <X;.n.` W :.:.z.' W / I T E <. XcX*.h X.+.@.Z E W X X.A.u X.D , O +.",
"U k V n G F . 8 5 - s./ k l G.J.S |.P.;.G.!.@.@./.!.l.8 . v.0XZ E >.N =.=.k z W s.P 5 l V A.aX*.K *.v 1.l.;.Q 0 A.aX#.d D g Z x ",
"5 x V S G J.E = z :.;X8.T k w.t.0.!.J.;.!.P.l l P.yXI.+ l 0Xr.8 2 E / E >.:./ W V.:XT w.a X.bXD *.G a l.w.-.` R R.nXJ.v , , ; p ",
"@.m E #.V U.{.7.~.~.].+.l 6 l l.v E O.w.^.j.M E z.6X!.x =.tXoXl p @.E / / 7.W ` :.>./ =.d |.nXi o.X.F P.x.>.] ,._.sXX.F p p l p ",
"@./ @.O.| J.W.` ] B.0...b.5 =.<X .+.p @.1XV.j.E :.b.XXO.p XXoX, Z w.C k ~ W P z.! / N E d |.NXn F u v t.-.:.Y / eXcX&. .>.>.C l ",
"N N -.O.V Y.@.P z.n.w.P.W.T @.l. .a : p 8.b.k.;./ s.XX0.C 6.pXA r.T / ,.z Q z.V.[.n.w.4 u .XVXA.X.F F | -.' U 8.`.bXq.+.w.z l O.",
"8.T R 6.A U.6.W 6XV.4XyXT p ..OX| $ l 4 M W.;./ N z.lX;.O ..vX3./.9.! P P ` s.B.k.{.=.a J.kXNX%.F F +.<.j.W Q Z _.bX&.1.w.x l C ",
"k.-.,.E A 9XOXw.~.,Xz.P ` E y..Xl 4 E x W k./ 8 z ` <XO.y E kX..R B ^ ` ` s.0 8.-.z.C ....eXNXX.| | S @.l.T P C S.sXt.+.Q / p 2 ",
"k s.! E A 9XeX..:.' :.[ ~ O &.A.$ O.;.4 T s.W.k 0 z ; x p Y.SX#.s ` I ^ q ^ ` W 8.~.E #.0.kXbXJ A S |  .W./ ! s A.$XF l 3 k.=.p ",
"q I N r....Xq.F E j ` b.P , 4.A.e l l C Q Z T 3 5 j ; 4 > L.$XS m j 8 / R P 7.Q / z.C ;.#. XDX&.d E | ! l.=.m p %.sXA ; Q ! W.c.",
"5 5 -.l.d 4.G %.#.~ ^ z.R y K F.r $ O d a v ;.@.3 8 p y . R.bX4.Z ~ R l R m @.;.~ ~ O.oXt. XBX0.Z E E W.R -./ p o.$XV e.8 # =.! ",
"# 3 ~ A u H D G A p ^ ^ E y =XAX$X.XD.i i & b #.4 + p , o.sXsXS.V u m m 4 7 v.l.O.~ ;.w.e.d U.A B @.6.w.@.-.@.4 L.NXJ.O.# / T T ",
"l ~ A r & H F.D L.+.9 P l X.mXmXHXHXSXy.& b pXwXkXY.t.FXJXSXMXS.&.OXY.u y V #.+.6.C p : y O.e.: = l 6 = 2 # s I.DXkXt 2 8 I j.{.",
"].U.F , i &XcXcXvX!.d.m.#.rXbXHXcXnXSXsX5.@XNXjXwXlXyXCXiXhXpXeX.X%X.X).|.6.Y.jX<X!.I.w.E ~ ;.v./ R =.R x 2 n.DXDX9XZ x ` B.W.n.",
"..t.q.#X#XaXT.4...Z m.9.Y.K.H `.H y.pX4.'.bXL.Z E ;.I R m ..o.J.t.U.t.t.OX6.0.6.|.KXl./ 8./ @.8.k.k.B.x.N c.,X,X0...P.:.:.7.j.N ",
"V #.rXbXcX3.n V U.~ m.Q.oXwXy.A > y.F e =X_.0.k.@.` C.] W j C 6./ Z 6.v.OXw.J.~ C I.@.B / -.,X~ 9.m.W.W.j.8.~ M m l s.j.d.8.~.Q ",
"U.J #XaX_.y > V l I.{.4Xt.A V * ..+.u g E.T.w.R :.[ C.} U I N 8.M 7 / 8.<X6.m : 7 8.@.k / -.{.( k.b.B.^.j.7./ / r.T W s.b.V.8.T ",
"|.J H cX&.y y E XX:.T ;.0.p R ~ v.V |.i S._.Z ( T s.} } { N.d.' 0 q V.[.,X9.B 7 M j.b.j.M b.8.( k.` z.^.B.P I I 9.j P ) s.7.Q O.",
"oXt.G %XvXl.: s m / 5 7 4 E 8.R E A oX& S..XZ I ,.' i.Z.Z.:X[ 9 q ^ N.d.d.` I k q 4X{./ M b.k.7.m.,X^.x.>.0 0 I :./ Q ,.W W R l ",
"wXY.#.oX9XJ #.V . A O.p p Z k P.+.U.0.> T.T.Z -./ ] { h.6X:X[ V.N z / a.7.[ Q ` l dXyX-.T k q 9.v.].v.}.r.- k n./ R P.z.P W 2 4 ",
"#.0.0.t.kXY.+.#.J.w.;.tX!.k.n.n.e.J.7 S @X`./ n.:.^ Y C.fXa.z.-.R z n.;Xs.:.] / m iXI./.p - M b.I.@.u.U.z.` ^.R 6.R -.8.' P @ ( ",
": ~ V ].9X..0.a r.qX!.v.dX,XR T p p XX* `.rXk.;Xg.z 1 C.g.^ :.,.z ! s._ x.a.[ W y gXY.l.m k 8.b.m ( v.v.8 N d.d.I.-.9.{.,.< z {.",
"4 s p Y.v.U.l ; Y.I.].R x :.N ~ l E -.7 S. X/ 1XN.s._ C.N._ :.n.n.~.,.I s.g.g.W m hXiXt.l 9.b.j.j :.{.9.k 8 7.8.<X3X:.R P c z.6X",
"R m m 3X0X;.O.v.!./ R / N 5 8.:.^.tXB * D.J.:.fXN.g.-X:Xd.^ d.k.W.j.` d.,Xg.M.B.$.kX9X9X0.O.Q.k k 8.` }.8 8 C 9.].r.-.:.P ;X~.>.",
"R E l 0X0XI.O l.w.6.j.=.R j.~ 4XP.v./ * L.eXR B.z.a.N.N._ 7.b.b.:.R k.:.d.:.f.` , pX.X0.].!.n.k ,.z.m.}.O.~ l.qX0X6.m.v.` b.[.W ",
"p k l 0XP.@.7 !.m 6./.6.n.{.l l.w.C 7 : `.hX+.^ W I Y 7._ M s.W 8.b.Q.V.~.C.Y P d hX+X_.0.r.r.8.~.b.-.U.A 9X9X).).I.P.z.m.;Xk Q ",
"C Z m !.0Xw.;.m w.P.m +.;.@.6.l.S d V y @XeX;.z.z ^ I [ 7.0 6 P j.,Xb.=./ ~.) j b hXhX9Xv.r.n.!.{.z.Z J.m y..X2.0.2.~ r.{.n.s.>.",
"E C + !.P.| r.O.;..., 6.Z . ].p F q.F i *XcX6.z.W / ^ [ ^ I ! Q z.}.dXW.T =.! ; f FX+XJ.v.l.w.@.~.~ 6.0.e J o.S 3.y...P.-.8.s.z ",
"Z m l O.Z P.a #.0.0.#.t.r.a l.d H T.4.o.xXaXI.B.8.^ q [ b.s./ z =.{.XXl.;.O.x p f pXJ.d v.XXv.Q.z.6.!...> %.A.S.%.#.J.6.k.:.k < ",
";.r.S @.J.| S e.J.d p qXU.J.J.0.cX`.e D rX#Xl.j.:.8.I P 7.B.` ` ,.8.@.m ;.O.C y b .Xr.p / r.}.,Xv.I.#.#.%.%.'.rXL.u 0.v.+ X < @ ",
"6.l.; @.0.a a E l * : S p u S +.K.4., y.xXT.x 2 M 7.M 9 I I ! 8   8 E l y v | p 0.DX~ . 8 R v.( 9.8 7 O r '.sXnXK.d O.. X 8 j 0 ",
"@.4 ;.0XXX{.{.!.XXXXl.E p ;.S P.g &.|.pXVX.Xl n.n.b.9.5X{.k.Q j T E p A > > t.tXjXFX1X/ N j 8 8 B B E d `.mXxXbXNX0Xm T >XB.~.1X",
"4Xc./.n.c.CX<X+.;.yXXX;.w.+.E kXjX9XU.0.3.o.8.[ M 8.,XdXV.4X^.x.^.j.]._.S.pX Xe.Y.|.~.' :./ 9.}.5X5Xk.#.&.aXmX@XOXXXW.Q.n.` x.p.",
"l.~.l./ n.0Xm k E {.n.c.!.l.@.;.r.I.@.~ o.v M W ` }./ 9.{.z.-.,.c.j.<.L.#X#X..v 7 @.s.U N.7.6.r.}.M R A g rX*X@XOX/ >.W ' :._ Y ",
":.8.8.=.8.Q x C p l.!.XX!.O.8 O./ n.8.6...O.N U 7.7.8 [.8.8.x.=.x.j.0.3.H sX+.S ;.W.` w z.7.b.9.W - 8 0.pX$Xy. XJ.x k.] ` s.f.p.",
"~ -.:.,.` ` P ! k s v.iXO.x T -.@.w.9.k p l 5 / x.' B ;Xk.s.z.7.s.-.R 0.e cX!.T R W U [ :.^ [.n.d.W c.kXNX`.A.%Xr.N ' :.;Xf.p.C.",
"6.+.P ` ,./ Q >.k ..L.gX~ -.Q >.r.P.w.m ~ # T >.N d.k.[.Q 7.:.:.d.R ( $.4.cXc.q d.^ q I 7.P N ` >.~.;.gXjX#XA.+Xv.-.[ M.M.f.f.f.",
"E 6.P B.z.j.W P m 6.|.9Xc.6.T z.l.6.@.@.@.+ O./ j ` 7.>.q / s.d.7.M ` 6.`.rXE ` ' ^ [ ^ >.~.V.8.^ ` 6.gXjXvXD.OXQ.B 1 _ { L Y W ",
"s l.W ,.s.P N j w.d ).kXE >.:.7.j.;.l.R ; m c.c./ >Xz.z ! N P ` I z.B r.D L.P.M 7.k W M @ 9 4Xj.M ~ P.wXoXR.0.t.tXn.9 { a.9 q g.",
"/ @.W.~.7.R / =.;.A J.eXZ T Q :.-.=.!.p   / XXE <X0X=.! I 7.s.7.^ :.d.+.D D./.` s.` W / W k.:.9.B k.].gXU.OXOXe.4X:X:Xa.w [ Y U ",
"6.!.s.>Xk.R C E v OX%X3XR T ` I ` Q j # C <X<X;.XXXX~ z N U [ N.[ U s.E u R.!.:.7.7.M 5 ,XzXk.8.B {.iXoXwX%XY.U.XXn.z.N.f._ f.b.",
"/ l.Q >.j.;.C p V eXoXwXZ 0 q ! =.-.# =./.{.(.x r.tXR ,.z [ U a.N.s.,.Z n $X{.Q / W s.` ^ ,./ / R Q.r.9X9XwXY.|.XX=.z.B.:Xq [ s.",
"w.b.T z Z v.l a A gXkXXXl k W Q B.z.4X>XQ j.;.C !.dX@.s.q w p.f.` 7.z.P.H aXP.0 ' d.W ` ` [.zXW.8 :.9.3XoXU.K.U.OXO.>.I z.[ g.g.",
"P.XX=.Q w.Z t p | uXwX#./ 6 / W >X5 =.R R R r.l.@.XX@./ W _ Y ] ^ W ~.(.D rXl.< < M :.z z.d.=.W.3 N XXgXoXS X.U.wX..r.N ` g.[ i.",
"l.l.x.=.w.C Z +.0XwXU.9X;.; ! P ,XW.R =.R P.l.E P.XXM 8 W d.[ W P n.1XXXA.aXk P M :.W ' / z 1X-.` W.lX0Xe._.#.J.oXt.~ 6 z W p.f.",
"P.!.l.>.=.l O.C <XoXoX9XE . @.n./ !.8.m j.r.C r.].<X3 8 ` P s.x.W s.{.;.T.@XE >.W s.:.' k W ;X,.` 2XtX!.|.U.i o.wXt.V 6 0 w p.-X",
"!.XX>.l.0XR T E E J.Y.A V 4 m r.E / : l E 6.O.E ;.BXO.4 l ; =.k.j.:.;.OX&XE.;.s.s.s.0 ! q :.1X>.k.n.P.XXV t.U.Y.Y...A ; 0 ` p.7X",
"0.!.z 2X4XR R E >.p ..r.x 4 * A r.....A | A + + S FXU.4 p p S l.R = : g h &X#.0 W 7.q @ o z P 3 R C 2 m ;.lXqXjX<XA m 2 2 2 = 5 ",
"E Z p -.R 8 T =.>.Z p jXdXC F %X3.&.q.q.y.0.#.b J.BX|.Y.wX8X| : + : A +.h T.0.0 @ 5 q M 7.:.k j = + ~ m s ~ / v.JXCXl.dX4X8 8.k ",
"a l p -.:.M T j.j.n.6.U.qXr.L.GX`.eXvX@XrXvXNXD.#.wXjXZXcXkXcX.X<XgXlXGXbXxX].{.k.d.1X:X:X1Xn.z.~ 6.0XdXb.n.,X~.k.W.l.tXCXjXCXzX",
"U.;.l.j.8.~ n.B.Q C E | E .. X.XT.A.VX3.L.VXuX#XNX.XhXDXR.q.rXNX|.$.A %XE.H O.8.z.b.B.7.:.B.P j 6.+X2.v.8.` ` z.z # x E w.CXBXr."
};
