/* XPM */
static char *_100bb39310846b0bdc45a12afacb32dFmaU7tXOI3DAmhV8[] = {
/* columns rows colors chars-per-pixel */
"96 64 256 2 ",
"   c #050000",
".  c #0C0200",
"X  c #0C0608",
"o  c #120500",
"O  c #150A01",
"+  c #1B0C01",
"@  c #160804",
"#  c #1D1104",
"$  c #1C140A",
"%  c #15100C",
"&  c #1B1713",
"*  c #230F00",
"=  c #231404",
"-  c #23160C",
";  c #25190C",
":  c #2B1C0B",
">  c #291806",
",  c #251C12",
"<  c #2B1D12",
"1  c #241A16",
"2  c #311E0D",
"3  c #37230B",
"4  c #2D2214",
"5  c #2C231B",
"6  c #25201A",
"7  c #332414",
"8  c #32261C",
"9  c #35291D",
"0  c #3B2C1C",
"q  c #392816",
"w  c #3F301D",
"e  c #2F200D",
"r  c #2E2823",
"t  c #352C23",
"y  c #3A2D23",
"u  c #352D28",
"i  c #3D3224",
"p  c #3D332A",
"a  c #3B3634",
"s  c #46331C",
"d  c #56361A",
"f  c #492D12",
"g  c #433424",
"h  c #42362A",
"j  c #44392C",
"k  c #4B3C2B",
"l  c #493825",
"z  c #543E29",
"x  c #453C33",
"c  c #4A3E33",
"v  c #443B34",
"b  c #513E30",
"n  c #402F25",
"m  c #4D402E",
"M  c #54422C",
"N  c #5B442A",
"B  c #4D4134",
"V  c #4D433A",
"C  c #534434",
"Z  c #584735",
"A  c #5C4A35",
"S  c #53463B",
"D  c #554A3C",
"F  c #5B4C3C",
"G  c #594837",
"H  c #5B503F",
"J  c #66482C",
"K  c #644D34",
"L  c #664D36",
"P  c #64523C",
"I  c #6C553D",
"U  c #6A5438",
"Y  c #74583A",
"T  c #7B552E",
"R  c #7E623D",
"E  c #554B42",
"W  c #5A4D43",
"Q  c #554A45",
"!  c #5C5244",
"~  c #5D534A",
"^  c #5B5447",
"/  c #534C49",
"(  c #635444",
")  c #6A5643",
"_  c #6C5B44",
"`  c #63564A",
"'  c #655A4C",
"]  c #6B5C4C",
"[  c #655947",
"{  c #735C44",
"}  c #715F4B",
"|  c #7A5E45",
" . c #655C53",
".. c #6A5E53",
"X. c #685D59",
"o. c #725F53",
"O. c #614F41",
"+. c #6C614C",
"@. c #74624C",
"#. c #7A644C",
"$. c #7C684E",
"%. c #776347",
"&. c #6D6154",
"*. c #6C635A",
"=. c #6B655B",
"-. c #736454",
";. c #7A6652",
":. c #756955",
">. c #7B6A54",
",. c #72665B",
"<. c #74695C",
"1. c #7B6C5C",
"2. c #796659",
"3. c #7D715D",
"4. c #7E7056",
"5. c #756B62",
"6. c #7A6E63",
"7. c #7B6E6A",
"8. c #736965",
"9. c #7D7264",
"0. c #7D746A",
"q. c #77726A",
"w. c #74706A",
"e. c #81603A",
"r. c #846A4D",
"t. c #856749",
"y. c #826D54",
"u. c #826E5B",
"i. c #886D54",
"p. c #857255",
"a. c #8A7255",
"s. c #84725C",
"d. c #8A755C",
"f. c #8C795D",
"g. c #947B5C",
"h. c #977957",
"j. c #9B744B",
"k. c #837464",
"l. c #8A7662",
"z. c #8B7A64",
"x. c #82766B",
"c. c #85796C",
"v. c #8B7C6C",
"b. c #857865",
"n. c #937D64",
"m. c #937E6B",
"M. c #997E64",
"N. c #857B72",
"B. c #8B7E73",
"V. c #8B7F79",
"C. c #857771",
"Z. c #927F72",
"A. c #A17A51",
"S. c #8C816E",
"D. c #8E8163",
"F. c #948166",
"G. c #9B8264",
"H. c #94826C",
"J. c #9A856C",
"K. c #9B896E",
"L. c #8D8174",
"P. c #8D837A",
"I. c #8A8478",
"U. c #938474",
"Y. c #9A8673",
"T. c #958976",
"R. c #9C8B74",
"E. c #92867A",
"W. c #958A7C",
"Q. c #9B8C7C",
"!. c #99877B",
"~. c #9E917E",
"^. c #9F9073",
"/. c #A38B6D",
"(. c #A58767",
"). c #A48D74",
"_. c #A28E7B",
"`. c #AA8E75",
"'. c #A59175",
"]. c #AB9375",
"[. c #A4927C",
"{. c #AA957C",
"}. c #AC997D",
"|. c #B39A7C",
" X c #B89977",
".X c #B28E6B",
"XX c #958C83",
"oX c #9B8E82",
"OX c #948A85",
"+X c #9D9184",
"@X c #9D938A",
"#X c #97938A",
"$X c #9C9992",
"%X c #8D8782",
"&X c #A18F84",
"*X c #A29484",
"=X c #AA9683",
"-X c #A59887",
";X c #AB9A84",
":X c #A2968A",
">X c #A59A8B",
",X c #AB9C8C",
"<X c #AA9788",
"1X c #B39E83",
"2X c #B29D8A",
"3X c #A59C92",
"4X c #AA9E93",
"5X c #A59B96",
"6X c #B19E90",
"7X c #ADA18E",
"8X c #B5A186",
"9X c #B3A28C",
"0X c #BAA48B",
"qX c #BDA98D",
"wX c #BAA385",
"eX c #ADA193",
"rX c #ADA39A",
"tX c #A5A099",
"yX c #B3A494",
"uX c #B6A995",
"iX c #BCAB94",
"pX c #B3A59A",
"aX c #B4A99C",
"sX c #BAAC9B",
"dX c #B9A696",
"fX c #BEB09E",
"gX c #AEA9A2",
"hX c #B4ABA3",
"jX c #BBAEA2",
"kX c #B5A9A6",
"lX c #BDB1A3",
"zX c #BCB3A9",
"xX c #BAB4AB",
"cX c #C2AB8D",
"vX c #C2AE95",
"bX c #C4B196",
"nX c #C4B29B",
"mX c #CAB69B",
"MX c #CBB799",
"NX c #D4BC9D",
"BX c #C3B4A4",
"VX c #CBBAA3",
"CX c #C2B6AB",
"ZX c #C4B9AC",
"AX c #CBBCAC",
"SX c #CAB5A4",
"DX c #D2BEA7",
"FX c #C5BAB2",
"GX c #CABEB3",
"HX c #C5BBB4",
"JX c #D6C4A9",
"KX c #CBC2B6",
"LX c #D4C6B8",
"PX c #E2CBB2",
"IX c #DACFC1",
"UX c #EBDECE",
/* pixels */
"v.v.W.eXKXc.oX4XzXoX! W.:XoXU.W.c.9.E.5XgXtXV E = g ( 0 # O $ O . + q A i.NX.Xj.A.d J f 3 l.( v.~ D [ -.z.+.>.P l h h , % & a % @ ~ p r XXP.N.N.c.oX@XV.N.C.5.*.5.N...V < i ' <.-.<.[ ' *.i # O ",
"1.c.:XaXAXeX:XzX4X..4XpX4XyXAX!.c.<.oXpX@X3Xx S + . + ( ` h h B ^ &.v.@.U  X.XT t.e.Y Y n.z.B ` aX] ( g e s _ >.P = . 9 5.tX#XQ  .OX .u q.0.3XxXpXoXP.V.x.8.*.V.5.P.*.8.y O ; 4 < < 4 5 ; , 4 p ",
">XpXCX3XE.6.E c ; D aXlXW.sXyXQ.Q.U.*X+X+XE.i V 8 c G C v.v.Z >.oXT.A { ].(.J d h.(.].1X'.-.c o c BXF ] z.#.d.d.).A g 2.W ,.x.8.OX*.c 5 ..x.5X>X<.9.P.x.N.P.N.oXV.OXV.~ x ! < O 9 c.oXE.+X .8.*.",
"P.0.oX6.~  .V 9 . ,.4XW.dX,Xv.s.v.v.Q.Y.*X1.S ! x.5.pXG u.%.I U ;.#.3 y.t.h.t.t.t.G.0Xs.I k o . o F 6X;XI K f { y.y.L @ * P k + - , p , B x.*.B E 6.*.8.+XN.C.%Xq.,.rXS  .4X..; D GXjX4XrX8.N.8.",
"V t t ` *.q.OXOX,  .,X+X*XQ.U.Y.v.] F 0 q :.sXZX3XXXP...g J.g.h.M.a.L K N r.(.(.a.G.z.P 7 . + c k.l.l.Y.K i.M.z J i.r.J r.a.L l o , <.0.V ,.6.*.*.<.5.c.C.q.q.*. .<.L. .~ XXc.N.6.N. .^ 8.*.q. .",
"@ Q q.P.#XOXP.x.c j >X+Xv.&.Z k k 0 7 o.*XAXB.<.5.=.v *.l K 1Xh.G.].| d U a.G./.}.H.P s 7 G !.*X) I I i.r.U J r.r.J f d Y Y f s.k . p ,.D B B.6.q.L.c.N.C.C.*.*.5.P.8.x.t *.N.oX8.x.q.5.%XX.Q X.",
"q.#XP.7.V.8. .~ D $ y 4 0 D 1.U.>X#X+XZXQ.1.j V V E @XW.F = J.%.M.t.i.a.d.I /.K.P 3 > @._.1.-.v.| J i.#.i.a./.a.| f d z U L N { k., 5 0.D , ,.,.+Xc.E 8.5. .8.*.*.P.P.N.5.P.L.P...8.P.rXP.5.X.*.",
"8.V.X.v v *.*.C.p 4 B <.L.L.+X*.=.3XE.<.*.0.0... .0.XX! 9.l y } L i.0X1Xs.| s._ : + s.} l u.U.Y.).a.a.n.r.`.i.z I L { J | i.J _ D ` $ E c ~ ..5.P.*.6. .*.%X#XC.q.0.c.c.6.x.,.V.*...0.C.~ ..*.Q ",
"XXC.*.P.8.~ &.*.6.#X@XaX*.*.E.<.=.=.8.w.q.P.c.L.yXdX:.:.XXB., ` A n.'.'.s.l.k o . > 1.( z.n.| i.L Y | r.%.0X`.l.l._.Y.l.m.K.$.P ' 6.W S ~ P.^ C.N.@X#XC.P.%X8.0.5.XX0.E.S N.c.x.S W ' 8. .0.=.j ",
"^ V p j x P.3X3XN.5.*.q.x.8.,.@X>XN.q.w.*.P.BXF.{.J.[.LXB.@XV # -._ s.l.] = O m q 0 m.P y.d.I %.i.| U a.I #.Y.Y.Y.*X,XU.l.@.4.U.eXoXE.W 9 P.` ~ 0.eX#XXXP.XX%X8.8.N.0.0.,.E <.B.h ^ 9.*.~ w. .x ",
"j # $ x I.E.N.8.5.C. .*.P.W 5.0.x.V *.9.L.>Xl.>.n.M.wX}.U.+Xr   4 Z C 0 0 -.v.L.s.k l.H.{ ) L J.K z |.#.$.s.m.v...[ aXsXS.T.v.W.9.V.6.6.u  .` p 4X3XC.L.x.@XE.5.0.6.6.P.W.< + c V ' <.W &.S.<.S ",
"j j P.0. . .0.C.5.5.8.~ oX7.8.6.*.L.9.*XfX] P y.g.|.).K.z.c.5 1 V 9.*XW.>Xv.v.v.l.F ;XR.{ M s N s y.'.A A ;.Y.Q.6.x.c.N.9.S.&.! ..>XP.<.5 x *.u 0.0.E.q.L.@XL.6.9.<.6.c.B.h # W 3X~ 9.XX' D E ^ ",
"L.L.P.@X*.5.N.5. .P.C.*.@XP.0.3X>X,X9.:.] =XmX8Xr.a.{ k ( D &.P.L.aXsX,X-.[ v.Q.v.P ;XiX2X#.l y.s.#.#.@.>.*X,XS.P.XX0.' 6.L.k.&.B.eXV.` + - <.l x.W.v.9.,.&.W D ( ! ....` j p &.rX^ 0.P. .=.=.=.",
"<.x.c.*.~ ~ ~  .0.P.<.P.@XjXFX3X6.1.1.[ BXSXJ.z.N M : F B.6.aXL.x +XE.yXF ] sX;XR.) { R.dXz.( ( -.s.#.H.v.7XW.E.5.5.*.0.E.oXQ.,X4X' S 4 9 4 D < k l 8 ; 7 # # O o + + = + - x  .~ Q Q V v r 6 1 ",
"V *.P.*.` V 6.6.q.*.x.L.3XlXx...D x.,XuX9X_ g : F ' <.3XrX3X3X^ *.eX:X!.v.k m.;X=Xl.Z 1.>.Q.*X*X1.( k.*XU.` &.E.c.0.4X4XB.dXk.( D = ; L.jXBX*X*XaXeX,Xv.s.Y.U.>.v.Q.k.b 4 9 h 8 - - . .     . % ",
"0.3X3Xq.~ c.L.0.8.6.P.x.N.9.v.` W oX+X:.: q 0 [ @X3XhXhXOXkXhX,.oXzXuXk.T.Y.b ] b e C v.7XlXeXeXU.v.*X+X1.9.P.<.' q.W.B.` k 2 + o q -XuXuXsXT.=XVXuXJXsXiXbXJXY.,XnXuX:.1.v.+XW...V v u 5 r   & ",
"3XrX5.0. .*.0.N.0.L.c.E.<.>XT.F B.9.9 4 :.<.' ,.FXHX5X7.@XkXkXB.*XBX[.m._.<X( -.q . ` *XW.] 9.9.<.:X:XoXU.` 9 i i i j 4 = = > ) _ ;XDX[.1XR.l.F.mXF.p.).J.'.qXNX9X[.nXdX9X=X9X9XR.~.U.U.rXoX^ 4 ",
"P.XXE ,.5.W.>X*.0.=.P.5.9.,Xk.:.S 8 . [ U.3.1.-.CXpXoXV.pXpX&X*X9XJ.N y.9XiXk.C U.W ^ W.*Xv.-.C x.L...D g B ,.eX9.*.! B ] H.Y.J.>.iX0XDXqXqX{.8X}.{.).1XbX].g./.mX1XiX}.F.}.qX'.bX;X-.uX,X*X>Xk ",
" .E S 8.<.,.<.B.0.*.N.c.L.uXs.s = o g s.z.y.K.d.s.Y.Y.[.H.z.Y.R.J.>.l d.nX;XR.G E.aXx 6.v.sXY.v.9.+Xl g Q.*Xx.i t E 9 ! Q.U.SX) s.=X0X1X{.mXmX8X8XbXcX1XcXNXwX].bX8X{.#.%.J.J.y.bX).'.z.@.U.sX-.",
"..E W ` j y S ' 0.*.,.q.] ] 0 > q -.Y.H.y.#.a./.d.N R.R.y.p.F.p.J.d.L {.J.d.;X;XF eXL.9.G k.-X;XQ.k.k ] c.F 0 j ' 0...S ,X,X;.) nX1X{.d.).iXR.0XbX8XbXp.}.DXvX0X].cX1XG.r.%.I f.f.d.n.#.;.H.<X( ",
"1.&.' ( 1.&.,.N.5.,.~ , < , y ] Y.9X).K.).(.G.G.r.K.nXd.H.AXsX[.y.a./.).8XmX[.uXk ` c.-.1.k H.@.w G ( [ T.c.[ 5.L.>X<.. ] *Xk uXSXDXnXVX'.s.'.nX{.8XF.f.mXmX1X1X0X|.0XJ.n.%.'.).d.f.L y._.Y.<XC ",
"< B ] ,.B.c.N.*.p $ 1 t 8 ` x.*Xz._.[.n.H.m.d.| d.J.dX,XLXUXyX*X1X|.].wX1XqX=XuXU.C &.D L.] : A uX=X=XyXU.*Xx.6.XX#X... ; k >.AXVXDXJXqXnXmXqX;XbX}.1X].cX{.).0XJ.n.1XH.{ m.z.{._.J.>.J.z.U.T.] ",
"o . o , ~ 0. .^ t $ x x B.W.v.=X6XU.k._.yXQ.P :.k.sXLXCXLXeXpX~.qXNXmX1X1X8XSXAX>Xj ~ 4 ..q = 1.=X@.v.H.v.uXQ.6.P.N.0.O . ! BXnXiXiXVX=X'.mX{.).cX{.1XbXa.$.].JX;X[.Y.;X@.y.'.[.>.dXv.v.:.sX*X( ",
"....D ` C y k j j i 4 L.AXQ.>.Y.U.U.Q.B.....W.4X3XC.8. . .P.oX~.9X1XJ.y.;.{.uXU.S 9 t c.B.F < ] l.R.z.@.R.yXW.B.P.P.q.N.B.&.c.k.,XPXPXDXnXiX{.iX8XmX8XcXf.g.|.MX).SXz.s.H.R.Y.Y.z.,X( [ -XsXeX1.",
";XmX[.H.iXqXiXv.Q.c.[ ,Xk.] z.m.{ z Z 2.c.>XhXtXw.=.q.I.oX:X+X,X9Xn.>.#.y.s.1.l i ~ +X3X@XjXh g P @.A ( k.U.B.9.N.#XXX0.LXv.<.uXVXbXbXVXbXbXmXmXcXJXqXbX/.p.|.JX}.H.H.[.[.[.K.;X[.9XH.] *X-XU.-.",
"NXwX].].cX0X0Xm.;.>._ z.{ y.r.M.#.I _ ;.*XE.0.=.0.$X5XhX@XL.yXsX*X>.s.s.z.C g B V P.@X#X@XpXoXh M M >.;.z.[.!.eXE.rX@X .>XIXc.k z.iX[.VXVXiXcXmXDXmXbX/.1X]./.qX1XJ.[.[.F.K.}.J.vX=X>.[.Y.Q.&.D ",
" XG.(.h..XL Y /.n.I U r.i.r.Y R h./.p.$.,Xc.P.#X%X5XOXq.V.&XpX4XZ.Q.2.Z q g ..W P.5XtXrXrX4XCX1.} A @.F.R.,Xv.x.9.L.0.<.aXKXlXG q z.iXiXVXMXMXqXMXNXqXK.mXJX].wXqXwXg.wXG.|.'.F.1X'.p.>.Y.z.1.q ",
"(..X.X.Xt.Y /.cXbXn.J 3 J Y t.h.r.a.z.sXU.c.OXOXP.0.%XC.4XaXB...n y g g ` ' W 8.rXhXrXtXFX3XE.CXG >.>._.9X[.k.<.L.c.0.>X+XGX>Xv.s g ;XVXVXVXJXMXiX}.'.K.].JX0XcXcXG.wX].g.].|.}.].K.R.#.;.H.R.F ",
"h.e.t.j..XPX`.r./.).N * N (.a.i.).l.!.v.B.C.7.N.8.@XoXyXjXk.2.' x.@X~ g ' oX4XtXxX#X#X5X#XrX4X4Xk.:.~.R.R.H.v.' Q.+XeXlXF ,.,X,X1.k g S.fXJXiXiX9XiXqXbXbX{.}.8XcX/.|.G.(.cXMX}.J.R.'.H.H.v.T.B ",
"h.(.h.h. Xg.Y %.n.P * #.A | %.d.U.v.!.B.7.7.<.:XeX*XT.Q.T.,XyXLXxX~ x @XCXN.hX>XXX$XgX$XP.>X3XeXQ.` U.2.s.1.:.U.W.S.P.&.C *XAXGX>XeX:.D v.H.v.[.F._ s.z.H.s.d.K.f.G.1X].#.'.'.J.R.;Xv.z.-.D i + ",
").n.a.n.U l z Z q : : ,X-.Z =XdXU.W.E.1.6.!.,XU.@.M l.7XT.eXP.*.5 . C.hXN.E.4X3X#X$XgX#XP.oX@X4XU.g k.Q.R.z.s.U.-XU.[ <.lXaX,XQ.dXjXaX! g 8 ( ] g g M A A M s s I #.>.{ s.u.>.) g : g i # + . $ ",
"C 0 7 : * + b 2.c.L.<.x.E.D Q.T.b.<.c.v.L.k.:.C k v.uXv.k 9 ,   .    .rX .L.LXtX#XgX#X8.N.P.N.3X6.# &.<.] ] v.3.m 8 &.W.Q.U.' B x.E.+X9.O + C ] k e : : Z R.R.>.2 > + + 7 C k q O o o O - t ' q.",
", 5 t ~ c ..L.*XsX,XpX,.V S U.>X~.S.k.1.( c : ; ` ] D <.c.<.V x E V i 0.5.CXrXP.xXxXN.I.OXOX4XgXq.$ 8 c.&.k B i g h h j D ' ( D ~ ` ~ ,.B.1.dXAXKX,X[ > ( AX*X,X[.3.Z q y c y 9 - 7 g C S.VXY.l.",
", p p u 1 0.>XuXeX,XjXB.v 8 C ` ( g 0 e : : C ' ' 6.eXoXN.@XC.P.aXFXq.x +X:XE.rXKXxX#XN.OX5X3XHXC.p u 8 W >XaXQ.:Xc.eXE.pXpXLXoXhX5XE.@XjXeXW.yXZXeXeX9.k ` uXnXR.~.*X>X*Xc 9 y W v.H.l.K.[.'.n.",
"N.0.~ 8.1 P.aX:X>XdX4X' 5.5 < k l s g F S <.yXx.E.pXGX:Xc.x.XXhX0.W.>X9 oXXXzX@XP.L.E.N.hX5X3X:X8.t x + 4XdX>X*X9.! oXN.x.jX>X4XFXXXP.:X,X>X4X>X9.3.-.+Xk.0 *XQ.[ ] -.C C g ] *X[.iX=X$.s.R.Y.=X",
"E.0. .#XQ 5XrXpXjXCX5.V E W &.>XQ.Q.yX9.k.x.4Xv.E.eXrXCX3Xc.c.N.x.zXLXc  .4XpX*.P.tXOXP.3X:XoXXXN.p ~ h jX*XpXBXoXx.@XL.oXW.k.pXLXXXoX:XZX,XeXBX*X>XW.~.T.: F k.k.k.G q -.,X[.v.3.s.H.s.y._.m.H.",
",.P.V.gXq.0.C.0.P.0.D t ,.3X4X*XU.v.W.9.W.oXeXL.oXaXjX>X>Xc.c.+X>XjXyXU.j jXoXx.+XxX#XXX@X:X3XGXrX5...B IXdX>XeXoX>XhX@XoX:XaXLXaXE.6.CX:XW.B.,X,X,XlXU.1.7 G } Z C z.sXBXBXs.z.z.'.R.F.n.J.R.F.",
"h XX:X@X/ v E w.E ~ V - 5.zXQ.B.:Xc.:Xx.x.pXZX:X4XjXjX,XeX:XzXpX4XoX:X,XE c.0.<.@XrXOXeXrX@XpX:X5X .S *.LXlXW.dXE.L.LX+X<.>XyX+Xv.jXB.+XLXW.1.*XT.2.k.>Xv.> > q M =XnXv.uX*X<XR.H.s.}.y.#.G.f.a.",
"6.6.8.*.5 Q V  .*.=.V + E P.` ..oX3XE.+Xx.aXeXN.,.eX,XaXeXyXeX,XaXU.+XeXU.i 9.L.jXXX5.hX4XP.:XoXpX~ x q.LXCX,XZXx.,.4X+Xv.>X*Xc.AXZX,Xv.AXuXU.Q.k.k.H.~.1.7 g #.;XbXR.#.} v.U.>.d.d.f.i.).1X/.r.",
"-.x.D ~ t 5 E ~ ~ ~ 1 # &.W.<.+XzX@XV.@XP.XX>XP.B.4XLX*XyXlXL.Q.U.+X1.*X4X8 6.rXXXN.P.0.P.P.4XrXhXE.x P.LXAXU.KXU.oX:XB.E.*X*XlXLXsX,X*XAXyXk.k.Q.~.*Xv.:.w *XyXqX{.{.[.( >.=X{ $.K.8X}./.g.r.$.",
"O.7 :.:Xq.5.t V r 5 t p E oXyX4Xq.C.@XE.' q.4XL.W.eXyX>X>XsXQ.1.v.k.v.BX,Xc i <. .P.5X5X@X4X3XpXGX8.u W.ZX,X( W.aX*XE.>XW.U.yX*XB.zXoXv.sX,Xv.k.] [ k.Q.2.g *X<XR.;X=X[.s.@.K.K %.qX/.p.d.m.Y.).",
"0 g ( k.,.` t $ a  .P.V h L.jX9.~ q.N.P.,.*.P.E.E.E.yX*X*XuX7X*X9.Q.AXsXdX<.+ c @XCXjXtX3XP.4X:X` . y v.LX6X1.oXc.1.B.,XyXk.,X,XoXsX!.&XnX<Xk.U.U.3.k.-.( q [ m.>.l.m.n.'.f.).f.g.f.p.f.f.} M ) ",
"_.Q.@.F b.L.c O ^ 0.P.*.9 ....9.8...XXL.V.3XpXeX6.c.lX*XyXuXuX~.v.U.uX,XsXL.+ # N.5X .*.0.*.,.E o 9 p pXjXQ.Q.AXB.!.jXBX>XQ.*XyXW.yX>XT.sX*XU.Q.U.Q.v.k.( = g >.{.`.iX1Xy.`.H.n.I K I I M I m.m.",
"_.U.>.s.;XsX9.- W rX>XE.C h eXx.N.5.XXL.>X+X:X4X>X*X,XQ.eXQ.Q.U.9.k.T.sXdXc.8 . O 6.3X=.V P.FXFX6.^ ..pXBX*XyXAXdXL.!.4X*X*XyXKXU.+XyX*XsXQ.R.R.1.<.*XS.= + b P J.d.m.{.`.y.;.{ P { n.n.P #.n.s.",
"U.l.u.F.Y.,X-.; ,.pXaX,X] g rXN.<.9.E.E.W.-.v.,XU.oX,X>X*XU.S.Y.1.Q.Q.yXQ.W.c + 1 5 5 5 tXaXhX@XV.P.oXW.,Xv.,XuX1.c.L.W.Q.1.sX,Xv.*XQ.oXuX,Xk.k.U.:.v.[ O # F >./.a.Y #.{.) b 4 7 k -.s Z H.$.%.",
"U.H.s.f.F.R.k = B.4XL.3.` g *.@X4XaXW.oXL.-.k.4Xv.1.+XAXyXU.v.yX*XS.c.sX,XoXV , 5 o E KXrXN.rXE.N.3X,.-.uXsXT.,X-.-.U.!.v.*XY.v.U.,XQ.,XsXsXH.v.-.2.>XC . O g g K Y r.{ M q @ @ + > q >.R.s.>.z.",
"2.z.>.n.f.y.k : v.v.*Xv.Q.B V XXsXaXc.>Xx.<.!.:X>Xv.*XAXsXQ.v.*XsX+X9.W.E.oX0.- ^ @XxXhX@XP.XXP.@X:X&.0 [ U.*X,XQ.*Xv.E.k.yX&X,X,XL.Q.yXQ.1.k.] 1.L.` 8 &.C C ] F./.G.y.=XSX<Xz.Z k =Xv.b.l ] Y.",
";.l.f.f.z.f.g C v.k.-XuXsX+., *.*.U.E.B.-.x.9.*X>XT.U.yX-X3.v.aXuX>X1.k.+XdX4X8 8.GX0.5X5XOXE.XXXX+X:X..+ g F k.Q.>X>XW.oXyXsXLXsX-X*X*X*Xv.yXyX*Xl ; i 1.6.1.v.Y.>.s.;.=X;Xu.v.( > C C ( >.2.oX",
"=Xd.d.J.p.p.< 8 c.Q.Q.R.uX,.% Q *. .B.&.0.aX+Xv.c.<.<.+X+X+XU.c.1.W.c.k.T.yXQ.k S ZX4XFXP.V.3XOXW.AXpX3X6.8 9 j ! W.*XQ.yX,XBX6X3.k.1.v.*X,X,X:.0 ' c . 8 h ` ` ] ) F ( Z k b :.2.o = ] 1.1.,.-.",
"m.m.{.f.K.z., u P.9.Q.z.S.<.r X *.P.V.B.+XaXL.W.sX>XeXQ.+X,XL.+XW.c.Q.+X~.*XU.:.0 oXoXpXE.W.L.:XP.IXXXrXGX%XB V g y D k.v.*XU.T.s.l.l.U.U.U.G q W 9.c ` 6.6.E.,.` C : = 0 C ( l.z.s g F v.[ v...",
"l.R.K.J.H.) $ & +XBX-XQ.z.H 1 X  .oXx.oXpX+X6.6.v.k.9.9.c.E.x.9.aX*X,XT.*XL.v.*X4 B.4X@XB.P.W.9.+XLXzXzXtX@Xc.~ W.c.c.+.] -.W S F G C G G 7 4 g ' B.>Xc.oX4X*XeXv.6...h > : k ! ! 8 F q 1.T.1.( ",
"u.>.n.1XF.] p *.hXeX-XuXH.S.x   h N.9.+XE.&.6.6.1.c.! ] B.:X9.U.eX*Xk.1.k.Q.U.L.- x.aXoXP.hXaXQ.>XP.B.8.N.#XXX8 W *XLX+.+ 7 , 7 k F P l g C &.Q.yXdXW.6.E.E.+X9.Q.6.!.L.` ; = k k # ( [ C ] ( -.",
"y.F.'.[.;Xk.j Q <.*XsX[.R.S.*.u t 6...c.1.c.*Xc.v.oXc.Q.E.c.&.c.,X*XU.-.1.<.C ; . W E.@XaX:XeXBXL.<.c.N.rXhXhXS # i C i h F ..B.eX-X*X-X*XW.W.4X,XQ.x.c.oXaX6.&.E.,.W.L.E.oX9.` 6.Q.L.! k &.[ v.",
"#.J.8XJ.=Xl.u v 9 -.-.) q = L. .t &.B.6.[ c.yXc.9.v.L.L.,.9.oXE.v.;X( F &.-.k.&.- - L.V.W.9.Q.sXL.:XoX+XrX:X#X^ <.O 4 <.*X>XW.yXQ.Q.L.Q.*X+X>XL.U.v.E.L.*X+X&.E.oXW.:X6.L.E.' -.6.L.1.g 8 b.k.b.",
"[.1XJ.).=X) p x 9 [ b C 3 + &.V.` <.yXk.6.v.*X6.1.v.oX&.W 8.S 9 : 7 1.9X*X-.9.FXW . V 3X@Xc.oX>XU.k.9.L.x.E.XXB B.V < k.L.U.v.+XU.Q.*X*XW.,XB.9.!.W.eXyX>X-.U.>Xk.<.L.c.oXW.6.L.W.U.1.k + l k.:.",
"f.^.R.F.R.[ h V ..9X[.'.R.) k <.,...E.' B.U.-.` ,.' ( c # o . - ( m.[.=Xk.9.9.pXoX5 o *.3X4X+XW.>Xx.W.W.oX+XL.~ <...S :X,XL.+XeXyX>X*XL.W.Q.oX:XoX>XE.v.v.Q.W.v.] <.W.L.6.&.&.c.v.c.<.( -.C Q.,X",
"D.K.H.H.;XF , c &.9XdXSX0XR.v.[ C c oXc.` ` D B.eXx.oX` < -  .,.s.z.d.l.1.:.[ ' 5.x $ t c.B.+Xc.6.5.W.v.c.-.+XB.W &.! 4XB.6.eXlXsX*XyXS.S.U.U.Q.yXW.k.S.k.9.W.b.k.L.Q.c.! ' x.E.x.,.-.0 Q.[ [ C ",
"R.J.qX=XY.G , $ k.VXDXm.y.l.sX6.4 4 ..D ` x.4XeX*X,XjX4X, E P.! d.f.#.>.l.@.:.+.c.V.p o y 6.oX4XE.,...` L.lXCXL...L.` <.v.*X>XyX,X-XQ.>XT.k.*XQ.*X+.v.U.<.v.L.k.W.v.9.&.&.,XT.v.T.,X1.F G : D :.",
"R.}.m.s.[.:.4 p U.JXl.#.J.[.sXc # j ( -.Q.Q.k.>XeX>X6.c.c.' x.<.[.F.y.f.F.l.>.<.9.GX7.+ . ~ V.oXc.B.<.6.oXB.,.1.B.x.S 1.uX*XdX=XR.;XsX;X[.fXBXBXQ.1.*Xv.9.W.U.v.2.c.-.1.,Xk.[ v.,Xv.G 1.H = ! 3.",
"8XR.l.u.R.[ : *.,XY.) m.z.sX-.9 9.<.,.v.k.k.v.v.L.v.&.] x.S L.L.{ _ J.;Xs.A @.@.F 1.o.+ j 4 C.*.,.P.4X>X,X,X+X+X` y y :.Q.Q.z.@.H.) ( l.s.uXuXk.U.U.Q.2.-.:.W.2.k.k.v.H.z.s.s.z.] q z.U.k.i [ c.",
"J.R.2X<X2X[ F ^ 3.;.l._.;XF 7 L.E.[ 1.v.c.,X,XT.,XQ.9.&.,.F B [ 0 P H.s.#.d.>.] ) } G - <.,.c &.,.E.oX+XoXk.] B + + < ;.Q.R.{ _ Z ) >.s._.Y.-.v.T.k.1.C :.Q.L.3.v.v.v.z.v.H.>.>.P >.Y.1.2.-.q g ",
"@.R._.;.H.+.&.&.3.D.R.6XF 0 <.0.,.L.BXKXlX,X,XyX<XU.k.-.k.1.; &.v.[.s.s.p.$.I I { U.2.+ 1.U.C C x.oXx...` ` D 8 ( v.F :.k.P ) P _ s.;.#.#.1.R.v.v.*XT.Q.yX*X1.v.9XY.z.s.n._ s A $.>.m.P g -.B B ",
"R.Y.F :.Q.( +.! +.@.#.G ) 2.<.XXE.W.lXv.<.] k.] 1.U.k.v.+XU.O k.T.@.@.>.y.y.y.{ H.m.{ 7 T.sXaXg W ,.W.Q.v.k g T.uX' o q b A P I s.n.I #.;.s.u.u.H.*XT.2.1.*X*XT.-.l.s.K s N z J.8X[._.-.q g i ` ",
"K.z.-.*X*X0 ` [ s q -.v.yXW.:X5XoXCXT.F 9.1.v.v.G T.*X*XyXU.= g k.-.;.#.#.>.#.%.z.l.v.s k.sX+X[ 4 <.W.L.<.D ,XBX] . o : l P N M L K qXiXvXs.Z ;.1.k.v.2.k.k.:.( M #.z M $.p.a.'.p.K I 0 F G ; W "
};
