/* XPM */
static char *_912644cda5f46a9a9066e34bb20ca2bA8f1asfcJc9yqwRk[] = {
/* columns rows colors chars-per-pixel */
"98 64 256 2 ",
"   c #673D2B",
".  c #5A3A2F",
"X  c #59432C",
"o  c #5B4839",
"O  c #564A35",
"+  c #66442C",
"@  c #644B34",
"#  c #644D3A",
"$  c #6C4C3B",
"%  c #674736",
"&  c #734D3B",
"*  c #774C36",
"=  c #6C533C",
"-  c #65533B",
";  c #73533C",
":  c #7B533D",
">  c #7D5A3D",
",  c #745538",
"<  c #7E462F",
"1  c #5E5243",
"2  c #6B4E42",
"3  c #644E43",
"4  c #744C42",
"5  c #6B5443",
"6  c #695647",
"7  c #745543",
"8  c #7B5443",
"9  c #745B44",
"0  c #7C5B44",
"q  c #7B5549",
"w  c #745B4B",
"e  c #7C5C4B",
"r  c #73564A",
"t  c #7A5D52",
"y  c #6B5751",
"u  c #7D634C",
"i  c #796248",
"p  c #7B6454",
"a  c #7A6855",
"s  c #7E7357",
"d  c #7F6E64",
"f  c #884C37",
"g  c #944D36",
"h  c #8C543B",
"j  c #86563B",
"k  c #9A553B",
"l  c #975739",
"z  c #8F4B2B",
"x  c #A35535",
"c  c #A3543B",
"v  c #A45B3C",
"b  c #AA5B3B",
"n  c #A95737",
"m  c #B35B3C",
"M  c #B6583B",
"N  c #A54E33",
"B  c #9C633C",
"V  c #8C613E",
"C  c #A5623E",
"Z  c #B4613E",
"A  c #835543",
"S  c #835B44",
"D  c #8B5C44",
"F  c #835D4B",
"G  c #8B5D4C",
"H  c #8C5545",
"J  c #935B43",
"K  c #9B5D43",
"L  c #9B5C4A",
"P  c #955948",
"I  c #865C53",
"U  c #955D52",
"Y  c #844C42",
"T  c #A35C42",
"R  c #A95C45",
"E  c #B35D42",
"W  c #B55F46",
"Q  c #846244",
"!  c #8B6246",
"~  c #84634C",
"^  c #8C634B",
"/  c #8C6A4D",
"(  c #856A4D",
")  c #936345",
"_  c #9C6245",
"`  c #93644C",
"'  c #9B644B",
"]  c #946A4D",
"[  c #9B6A4C",
"{  c #976946",
"}  c #846452",
"|  c #8B6452",
" . c #856A53",
".. c #8C6B54",
"X. c #8C6C5B",
"o. c #85695A",
"O. c #946554",
"+. c #9C6552",
"@. c #946B53",
"#. c #9B6C54",
"$. c #946C5A",
"%. c #9B6C5B",
"&. c #956559",
"*. c #8D735C",
"=. c #8A7357",
"-. c #947255",
";. c #9C7254",
":. c #94735C",
">. c #9C745C",
",. c #9C7A5E",
"<. c #977959",
"1. c #9A714D",
"2. c #A36344",
"3. c #AC6344",
"4. c #A4654B",
"5. c #AC644B",
"6. c #A46B4C",
"7. c #AB6B4C",
"8. c #A86A45",
"9. c #B36343",
"0. c #B36C4C",
"q. c #B86649",
"w. c #AB724D",
"e. c #A3734D",
"r. c #B7744E",
"t. c #A46D53",
"y. c #AB6C52",
"u. c #A46C59",
"i. c #A76956",
"p. c #B36D52",
"a. c #B86D57",
"s. c #A47254",
"d. c #AC7455",
"f. c #A4745C",
"g. c #AB745B",
"h. c #A47A5C",
"j. c #AB7B5C",
"k. c #A97955",
"l. c #B47454",
"z. c #BB7354",
"x. c #B17A55",
"c. c #B3755B",
"v. c #BB755B",
"b. c #B37B5C",
"n. c #BC7B5C",
"m. c #BB7A55",
"M. c #966F64",
"N. c #8A7565",
"B. c #947362",
"V. c #9B7462",
"C. c #957B64",
"Z. c #9C7B64",
"A. c #9C7C6B",
"S. c #96786A",
"D. c #987C71",
"F. c #886B63",
"G. c #A37562",
"H. c #AC7662",
"J. c #A37C63",
"K. c #AB7C64",
"L. c #A47D6A",
"P. c #AB7D6A",
"I. c #A47569",
"U. c #B37C64",
"Y. c #BC7D63",
"T. c #B37E6A",
"R. c #B77A67",
"E. c #A97D72",
"W. c #AF7970",
"Q. c #C27C5C",
"!. c #C4775A",
"~. c #C4714E",
"^. c #C37D62",
"/. c #C67E67",
"(. c #D27E65",
"). c #813D28",
"_. c #AB825D",
"`. c #B8825D",
"'. c #9D836D",
"]. c #988268",
"[. c #9B8573",
"{. c #A48264",
"}. c #AC8264",
"|. c #A4826B",
" X c #AC836C",
".X c #AC896D",
"XX c #A88A6A",
"oX c #B48364",
"OX c #BB8364",
"+X c #B3846C",
"@X c #BB846B",
"#X c #B38A6C",
"$X c #BB8B6C",
"%X c #B98A65",
"&X c #A48473",
"*X c #AB8472",
"=X c #A58B74",
"-X c #AC8B74",
";X c #AD8D7A",
":X c #A48A7A",
">X c #B48573",
",X c #BB8572",
"<X c #B48B74",
"1X c #BB8C73",
"2X c #B38C7A",
"3X c #BB8D7A",
"4X c #AB9278",
"5X c #B49375",
"6X c #BC9275",
"7X c #B4937C",
"8X c #BC947B",
"9X c #BC9A7D",
"0X c #B69B7A",
"qX c #BC916F",
"wX c #9E805E",
"eX c #C5825E",
"rX c #D58359",
"tX c #C38364",
"yX c #C3856A",
"uX c #C38B6C",
"iX c #CA8B6D",
"pX c #C88765",
"aX c #C6926D",
"sX c #C38D73",
"dX c #CB8C72",
"fX c #C68A76",
"gX c #D28D73",
"hX c #C49274",
"jX c #CB9374",
"kX c #C4947B",
"lX c #CA947C",
"zX c #C3997C",
"xX c #CC9B7B",
"cX c #C99975",
"vX c #D59779",
"bX c #D28E6B",
"nX c #C6A17E",
"mX c #D3A07C",
"MX c #E29D7E",
"NX c #BC9481",
"BX c #BC9B83",
"VX c #B69884",
"CX c #AF9381",
"ZX c #BBA288",
"AX c #BCA696",
"SX c #C39B83",
"DX c #CB9C83",
"FX c #C69785",
"GX c #D49B84",
"HX c #C8A388",
"JX c #D5A689",
"KX c #C8A693",
"LX c #D5AA95",
"PX c #DBB599",
"IX c #E3AD92",
"UX c #E0C6AD",
/* pixels */
"~.q.q.q.Z m M n 7.;.w 6 O o 3 3 # ~ ^ DX%.  w  .s =.,._.B eXb c R c 9.m M q.9.pXn.2.3.m m Z 9.b k @X#.~ > : >.@.-.Q j j.OX4.y.y.R 3.0.0.7.Q.pXl.l.5.5.5.p.2.2.OXZ.i  ...i ..$.^ f.j.}.^ ! ^ ` @.X.o.",
"pXtXtXv.z.q.q.5.s.6XB.p p w w p } :...9X:.+ } i u 9 ( J.) OX2.k k k v 9.E n x ^.7.l 3.~.9.Z 0.7.K ,X}.@.| @.@.J.}.}.j.xXjXl.n.p.c.v.l.l.w.w.2.2.2.T 5.4.7.2.7.hX@...<.>...:.Z.|.J.K.}.L.@.| D ] $.:.",
"}..X,.}.yXY.R.j.j.h.P.2X*XSXLX}.#X}.2X*X&X&XL.<X XL.:XB.S.L.G.f.;.b.uXl.5.R 3.0.0.0.!.!.pXx.k.j.h.{. XJ.P.1XDXsXhXuXuXpX^.Q.!.pXyX+X#X}.#X6XH.U.U.c.c.c.yXuXyXsX1X1XkX8XHX|.A.L.L.|.7XZXUXUX8X$XtXiX",
"u i O *.+XH ` ! ! ! ^ G A s.@X) ] S ~ o.t o.@.>XkX:.t 6 r 5 & ^ Q ] sXJ l g l v b x C C yXs.h.-.,./ 0 * ^ G U.` f K l k z g v l $X>.-.-./ >.#.#.U.j.U.g.d.b.b.s.U.H.oXJ.5X0 4 % 8 & C.UXZX7XHX[ 2.9.",
" .a O ].8XH ^ ` ) ! ....F  XDXD e  .i 9 w 0 0 #X#XQ 0 7 @ @ & 0 / >.3XA G J K C Z 3.2._ hX` ^ >.f.@.S ; ^ S 3Xf.j t.' _ K 4.7.K sXf.@.>.@.@.G.P.f.+.g.s.] ;.j.k.J. X<X5X9X....| +.` J.0X0XUXPX6.l.l.",
"*X7X:X=XFX,X1X>X1XSX2XA...:. XJ.[.:X=X-X XL.K.h.$X%X1XK.j.}.L.J.:.L.&XX.V. X@XyXtX2._ s.>X*X-XL.K.+X+X}.h.,.zX}.f.@XsXsX$X#Xf.%.1X1X+X#XJ.f.P.+X1X>.P.#X+X%X%XhX>X<X|.7X-X&X*X X+X6X5XXX4X5XzXsXuXhX",
"k t.>.: P L U H G.E.t t t 7 ; ~ y 6 C.3XfXlXy.p.5.p.R q.z.pXh @.o.y y p r } #.+X#.` ^ S e } o.*.@.$Xb.7.U.f.@.$.%.U.u.oXK.S ..} | :.G.t.' c.k.+.%.| $.%.f._ l l.H.$.% % # t t q | L.>.~ 0 ! ) k.] @.",
"g g H f P f Y Y I.*Xt 3 2 q 8 r y y ..>X+.g.g.4.y.0.9.n 9.Q.h F 5 o 3 o % F G FXO.A 8 & 8 e i 0 @.$X6.g 6.J S F G G ` K.Z.$ $ r 8 : [ ' l b.j.j F } I G u.K x l.#.^ *   X @ # . % B.| 8 &   [ ) 0 ; ",
"yX@XP.G.i.u.^ >.3X*XN.F.M.$.X.o.o.N.-XNX:.L. X}.h.t.y.y.c.@XG.S.S.N.~ S ` [ g.lXf.K.P.K.K.f.K.h.<.6XoXd.g.u.%.@.Z.$.:.7X7XB.M.M.>.;.j.@Xf.#X5X<.].C.$.` g.y.7.n.j.j.%Xb.h.|.C.*.*.-XA.X.*.Z..Xh...*.",
"g.H.| *XLX` ..=.-. .a [.S.E.FXA.F.F.X. .*.o.<.{.9X3Xf.G.P.*XM.D.A.@.J.U.4.K 5.i.u.H.u.c.iXjXb.`.}.{.K.+XT.G.<X5XJ.=X].'.&XA.E.P.1XjX@Xf.%.Z.C. . .:. Xg.j.R.u.oXj.cXJXd.hX<X=XC.C.A.|.B.A.=XZX0X4X;X",
").f + :.LX; a X X O O O 7 | <XF 2 6 9 ; $ X = u 7XZ.} ..$ @ o o ; ^ d.2.x b k c T P g z z.3.z 3.s.^ ~ w e 7 Z.J.> > = - w w P L c.d.D G o.w 3 O X , j.d.J +.| | ! K.U.K @X#X..0 -./ ..B.X.r [.=Xu ~ ",
"z f * :.DX@...i ; X w t w  .SX0 2 a w ; ~ 0 u  .ZX'.X.o. .e p p X.S b.n.C 3.4.k L P L h d.2.l 0.g.^ } w 5 w -X,., > ( i  .|.f.' sXU.#.$.X.w 5 5 ; 0 K.@X+.u.I.%.J.G.+.' f.<XB.o.-.-.>.L.Z.7 [.4X=.-.",
"v.yX1X}.@XdXiXyXsX>XL.D.N.a [.S.:X:X.X3X+X X;XC.:X].'.5X8X5X*X&XD.S.-X<X#X.X,. X*X*X*X&X X#XH.c.U.>X*X*XCX;X8X1X$X$XsXDX3XSX9X|.7X|.B.B.2XLXNX2X-X*X2XFX,XR./.GXJX8XhX,X3XBXVXCX0XHXKX9X9X9X9X9XnX9X",
"v._ s.#.K T 5.5.l.lXG } p 6 3 5 5  .;.hX' O.} o.a - ; / V j.| I 6 y p 5 5 9 0 A.X.w w p w u O.#.+.G.O.| | O.>.+.t.4.K lXg.G =.i p p 5 @ S >X#.#.%.$.$.$.f.' g yX}.:.>.>.Z.:.*.*.XX9X}.>.{.#XoXoX}.{.",
"2.6.[ J ' _ 2.K oXkX8 q r r # @ e | s.xXJ u.$.o.p w * j ) $X^ 7 3 o o 1 # @ ~ 8XO.$ # o o o $ } A K.^ > ! ^ G G U u.R gXi.D e o o 3 - 9 ..1X#.L ` ` @.@.f._ g Y.Z.u 0 ^ ~ ~ i / .XzXh.>.J.;.J.}.;.;.",
"pXjXsX+Xb.s.j.j.$X<X:.L.-X-XV.>. XJ.uXxXsXFXNX|.*X X@XU.j.HX;XD.D.N.N.N.A.>.g.kXU.f.V.V.B.-X:. X,XJX#X-.<.>.J.H.T.@Xc.GXU.,X>X-X|.|.XX5XJ.DXsXyXY.b.%X$XqXOXuXGX-XC.'.{.J.<X>X}.$XxXhXlXHXzXSXSXSXHX",
"7.y.[ 1XlXf.K.h.h.>.J.V. XK.lXt.$X%Xk.t.u.H.P.@.sXc.R R f.*.d a o.>.1Xy.2.5.2.2.4.c.c.g.lXiX7.7.b.j.K.G.f.#.U.Y.g.f.V.:.Z.u.5.R iXOXd.b.f.H.c.c.l.p.iXiX7.b.sX8X4X4X=X*XDXlXyXtXtXY.dXpXdX$XJX<X|. X",
"k l j >.1XG ^ ^ ! @.@.@.@.` sXK w.b.[ h +.f.@.* kX2.c R S o 3 o @ A Y.p.x x l l l l T k v.!.x b C 6.#.@.>.` OXy.h j ; @ % + k b z.2.4.4.#.[ ' 4.5.v z.l 2.i.D ^  .=.} B.<Xu.6.6.y.y.7.7.7._ 6X@.0 0 ",
"2.y.u.+XLXK.J.h.}.{.V.J.:.@.JXj.%X$Xk.k.U.U.Z.-.JXf.u.f.~ = u 0 0 @.@Xc.T 7.[ ] ;.#.H.i.^.^.3.0.m.OXj.G. XJ.hXOXt.t.^ u u ~ ;.` 3X#Xf.K.K.[ 4.2.p.7.n.c.6.b.f.@. .s a p |.{..X6X#X#XoXb.Y.d.$X XZ.Z.",
"yXvXGXkXDX<X6X8XLXHX:.:.A.Z. Xh.#X6X$XmXpXiX6X7X;XA.&X|.-XHXhXuX@X@XdXpXY.uX$XkX,XsXuX^.pX^.!.eXeXbXoX6XBX8X#XxXsXkX3XBX7X;X7X|.&X|.<X3XDXJXtXn.!.pXpXgXeXpXjXJXZXZXAXAXKXHX7XXXHXLXDXsXjXjXlXxXJXJX",
"Y.K D D : A A A P.J.% = e 0 , * > #.oXbXx 3.[ > # # 3 o 8 @XE W 9.3.5.7.6._ K ^.T R T R v v b m q.!.4.j.>.-.> ;.f.g.f.,X>.| 0 5 = r : O.u.vXz.9.m m 9.Z Z n C OX{.C.o.N.o. ...S J.DXY.v.5.!.gX7.3.0.",
"n.l j j : ^ G A L.|.$ u :.$.^ * j #.Y.bXN 9.x.Q = 3 6 o % H.R n E 0.0.7.s.6.y.iXE E q.3.T 7.3.z.5.v.[ k.] / -./ S +.f.,X#.>. .i } } @.%.+.GX5.E m Z n Z b x 2.`.{.:.~ ~ 0 u ~ 0 @.3Xc.y.T v.n.T 3.3.",
"pXvXsXK. XA.*XJ.*XKX=X&X2XG.f.oX%XtXpXgXa.z.Q.k.,.*.C.S.[.VX1XU.OXuXhX$XsXhXvXvXiXpXiXn.U.OX@XsXDXJXHXJXcXqXHX<X2X8XHXJX}.8XBXBXSX6X}.}.J.9X1XoXb.jXOXaXyXsX8XLXBX9XBX5XBXBX5X-X5XHXxXhXjXxXxXhXzXzX",
"l.l.y.+XPXe : F ~ $ e X.V.u.U.4.B 2.v 5.0.3.5.7.#X/ 7 o.N.w e ^ }.h.oXj.s.' 6.6.x.c.c.d.%Xf.f.^ o.<.<.;.k.oXhXkX|.~ ..<.^ #.>.>.6Xh.@.^ } X.$.O.f.t.zXhX%.P.B.} ..<.>.L.SXJ.|. X<X<X}.#X}.{.HX5XZ.{.",
"0.2.g U.HX+ * ~ ^ % + & G.u.R.K c c c v b 9.v 7.+X, # w # # & j s.[ b.t.s.6.8.w.w.w.l.7.d.` G $ = 9 , Q [ K g.G.~ u , + : ) P ` zX-.! & 8 q U U P H sXU.#.>.~ ~ ~ Q ] ` K.@.@.@.@.` ^ ! / -.4X( ~ ..",
"z.p.y.uXDX@.] h.>.^ ..%.%.T.LX@X^.^.^.Q.z.!.Q.Y.kXV.:.B.X.u $.P.>X+XDXhXoXd.x.x.`.`.c._ sXG.%.X.B.|.{.h.}.hXlXP.2X-XXX_.oXU.@X@XzX#XK.K.V.| I.I.I.%.>XG.%.P...~ Q @.>.#.<XL.V.:.G.#.K.G.J.Z.ZX*.Z.L.",
"v.p.i.g.j.g.t.c.sX$X>.>.| 8 O.G.c.n.n.iXQ.pXyXR.T.H.U.f.g.K...Z.B.A.|.>.K.g.g.$Xk.h.@...*.B.M.E.FXGX1X$X}.#X>X>XkX6XcXJXxXyXsXsXuXxXsXhX#X9XBXA.'.*.'.'.*X>XG.<X7X=X-XZ.;X;XA.'.-XSX3X2XBXFXBX7X&X:X",
"K l f f < h f l c.j.A S $   + : D J l OXT 5.u.u.H U h h ' U.0 @ X @ = ; * h 4.j.D , ; = X o 3 $ ' Y.6.f.;.@.>.%.f.s.s.xXb.k.j.U.j.g.d.s.s.nX{.9 o - - # 8 $.f.NX;Xu  . . .o.p u A. XL.$.$.} | e  .p ",
"4.6.g.t.+.+.4.' @XkXG.V...~ Q S f.H.j.vX7.7.g.G.%.@.#.^ ` 6X~ ; ; ; + * f _ d.uX) ^ @.~ ~ 9 = , b.iX6.d.k.h.G.u.f.t.s.cX_.oXoXK.f.f.t.[ ] nX{.( = 9 5 = e :.$.L.'.w ~ ^ ~  .w u <. X|.| F r ~ ~ u i ",
"tXpXuX+X>XG.P.G.*X2X&X2X;X X1X1XDXDXHXJXhXuXvXjXJXzX8X2X*X8X;X|.K.@XoXoXOXOXl.tXU.1X<X<X8X5X{.#XaXpXeXaXvXsXoX@XsX@XuXmXhXhXcX%XsXkX@XU.k.xXjX%X1X#X XZ.L.*XZ.&X-X|.*X}.2XCX'.4X.XnX6X X2X7XBXSX9X7X",
"~.0._ ^ %.7 7 3 o o 2 q 8 ` dX7.y.` Q 0 Q ) l.0.pX6.#.| q e e G K 5.tXk.8.8.l.p.i.` >./ #Xj.d.w.m.m.!.m.m.x.%Xk.U.g.b.g.d.x.n.r.pXm.b E m b m M E 0.yXg.+.V.X.} t $.G.f.8XSX|.|.j.k.b.s.K.K.DXK.s.g.",
"~.0.6.#.L.2 o 1 o o o . A ' dXl.6.J > Q / ] 7.3.n.6.D S $ $ q O.4.5.OXB 6.w.d.4.4.` >.;.$Xd.7.m.r.0.m.r.r.w.cXk.t.g.U.U.oXOXv.7.Q.l.x x E E M M n x ^.y.H F e e $ & A D L.2X,.@.1.k.s.[ ] @.#X#._ _ ",
"eXl.;.| BXC.N.D.*XA.A.S.G.G.3XK.j.j.f.f.f.s.d.g.$Xh.>.-.@.,.;.s.t.H.DX+Xj.oXj.j.b.oXoXj.jXOXn.tXx.b.x.`.`._.cX%Xl.Y.U.g.K.K.K.;.}.}.f.k.6.7.y.g.g.g.fX@X#.G.:.|.Z.Z.J.,.-X'.C.<..X6X}.L. X5XHX9X6XzX",
"z.l.> = :.} # ~ >X>X~  .@.O.G O.#.t.g.uXg.d.oXs.K.K.h.J.}.zXj.;.@.#.J.G.f.;.;.hXOXb.tXuXpXeX`.x.OXvXaX`.w.8.l.Q.m.l.b.jX;...:.:. .*./ @.K.1X,XG.H.P.}.f.J.}.|.7X X-XZ.o.'.'.C.C.-XBX5X.XJ..X7X5X<X9X",
"Z C * = :.o.X $ %.G.w 9 / S j ` j j k.hX6.6.6.d.k.K.f.#.f.6X] j * S A S ^ #.s.$Xk.x.pXbXpXpXpX`.l.iXl.T T E N E n x B %X> i 9 5 # = + > ` $Xu.#.` O.^ / ! G O.E.| | F ~ } u ; 0 ,. X@.@.! ` ` ! ! $.",
"rXeXh.-.>...*.A.<XNX$.S }.k.u.#.` j +XJXc.b.l.c.7.d.g.s.K.xXP.#.@.] @.>.}.+XoXjXx.`.eX`.`.x.x.x.b.tXK k R q.E 9.q.q.r.xXh.<.*.D.o.w , ^ ;.xXf.K.#.>.^ ;.h.G.&.>XV.%.| F ~ :.V...>. X;.>.h.;.#.] #.G.",
"rXbXoXh.oX#.:.o.| %.G.U.r.z.uXO.&.&.U 4.i.7.7.r.bXz.tXdXdX$XK.K.h._.JXmXJXJXuXpXuX`.OXOX$Xj.oXj.j.@XoXsXuXOXbXeXm.pXpXuX+X<X2X*X8X2X6X}.{..XZ.|.L.G.fXfXT.,X>X8X2X X2X8XFX3X3XP.+X1X#X}.}.J.8X#X#X#X",
"~.m.y.t.hXD 7 2 4 4 j h x x U.G U U U h J 2.2.l eX0.n.c.d.g.[ j ) { aX`._.k.y.c.b.s.d.u.hXf.] ^ D ` ' s.s.s.hXb._ l _ ' +.G O.|  X>.j ! ^ Q 0 = ; 0 ,X+.t.t.` ! S ` #.P g.U.U.f.` D D S : / 5X/ j j ",
"gXtXU.K.PXG.X.I I I %.[ 3.k ,XV.u.g.g.J J ) ) [ kXf.K.$X$Xj.{ [ { _.hXs.s.j.g.d.j.K.f.f.DX<XJ.J.#.#.t.6.d.d.$Xj.V ) #.+.^ ^ @.^ -X-.j ] D S 9 7 % 8 FXG.t.[ #.] t.6.' 2.U.c.t.' ) ! ^ @...Z.SX| ! ! ",
"4.u.%.| J.:.B.D.E.FX*XP.H.u.E.I.U.c.g.g.J j @.^ %.$.>.J.oXaXx.w.l.OXtXl.`.tXOX@XlX+XP.G.-X*X*XP.#XOXY.c.v.y.b.$X#X#XH.T.U.@X#X XBX|.#X@XR.U.f.#.>.G.DX+X+X+XK.K.b.iXvXMXvXvXgXiXoX1X#X<XJ.J.NX|.|. X",
"* & 7 2 # 2 2 $ @.}.8 X 2 5 } 8 ` 6.i.uXU U | q e r e S j b.0.b m m m n 9.3.z yXU.A | } I I I F l m.pXT 5.L ! ^ ! [ 5.(.a.T 4.` t 2 O.i.T (.(.q.r.8.6.u.O.%.O.FXOXm.m.b q.q.~.z.p.dXU.f.! | | | 0 e ",
"D G 7 5 2 w 7 & { JX& q w # e } ^ #.O.>XG A 4 q r 7 8 F D U.5.k E M m m b x l jXH.S 7 $ $ 8 q S _ r.Q.5.4.P A S ^ [ K Q.5.g J ` q q U P g !.~.n b 3._ ` O.I I >Xd.2.2.v q.q.q.3.l.n.6.[ ` A * * ; ; ",
"jX,X*X2X3X,XhXyXmXxX@XfX3X X&X=XD.N.X.A.'.&X;X;X7X-X2X8X+XkX$XOXn.v.l.n.n.`.e.%X#X_.<.-.,.}.f.k.d.tXOXK.}. XP.>XL.|.|.7X,.>.}.K.,XU.U.H.s.%X`.x.oXoX@X1X3X X}.DXj.s.6.y.7.4.w.l.d.OXoX}.}.h.h.J. XL.",
"m.y.+.O.sXk k 8.8.l _ 2.l.OXNXo.5 6 a w i i C.*.L.0 S A D : j j t.c.b.d.d.`._.;.}.#XwX{.#Xs._ 6.4.2.[ @.^ L.NXI.$.F u a = 9 ..@.$Xb.oX}.>.;.h.oX$XhXDXK.` >.}.h.}.U.@X@Xc.6.OXuX%XhXuX$X$X#XkX+X1X#X",
"!.R P L dXl x x l f 2.0.x 0.L.% % u  .i @ @ 9 ~ F % Y   Y f H A h t.U._ 4.w.k.) ;.f.^ ;.U.h g k g k g f j #.L.e $ % 7 r e % + S $Xs.h.;.] V 1.e.k.t.@XO.: A ^ ! ` ' u.g.U.b.pXv.n.l.y.y.t.s.+X#.t.6.",
"!.v.i.4.vXm.z.Y.b.K v.Q.b l.J.B.~ .. .0 ~ u  .:.HXE.L.I.I.%.&.>XT.,XlXU.b.d.6.j +.@.G %.+X+.y.a.v.a.a.v.i.@XkX+.#.G %.%.%.~ F Z.xXj.}.K.f.s.d.d.l.OXDXK.#.#.) [ f.g.T.u.s.6.b.c.Y.yXyXyXU.J.3Xf.j.j.",
"' L L L 4.i.%.| G.+Xg.u.f.>.S.N.p } Z.L.>X X<X2X;X;X&XZ.*XPX*XV.G.J.T.H.f.t.u.K.>.$.$.$.Z.G.T.@X^.vXm.v.v.Q.^.p.Q.v.tXxXoXL.<X#XuX`.$X$XoXuXn./.n.yXDX3X#Xj.v.GXGXlXhXK.}.k.k.;.j.$X+X>X>X|.;XZ.B.A.",
"H f H H A G e % V. XG A & ; p 5 r w L.8X+.+.u.^ ~ 8 @ % } BX| F ~ F D D j j J +X: ; } e 8 ^ D J _ pXC k l v b n b 3.B OX[ ^ >.f.e.d.s.;.s.lX4.k K h D ` ` _ 3.!.i.t.K.}.{.h.;.h.}.+X#.@.| $ 5 w 5 w ",
"H.@XU.%.#.G G 8 DXHX>.G.-.<...0 ~ >.}.JXH.Y.U.f.` @.-.=.'.HX,.>.Z.>.>.#.f.f.t.JX@.^ :.| ! @.t.6._ jX2.4.5.5.0.3.7.l.l.sXH.K.K.P.U.b._.h.<.#Xs.K K ' [ f.h.t.7.n.t.f.h.,.-.-.-.] ;.}.>.-.9 7 $ w 9 9 ",
"Y.R.U.U.DX+X+XkX3XFXBXHXHXHXPXzX$XuXOXvXiXjXlXDXLX9XZXZXVXZX7XLXKXJXPXJXvXdXyXGX1X+X<X<XJXlXvXgXpXvXv.Q.^.pXvXtXv.OX@XkX>XkXkXhXsX$X}.h.{.9X#X1XK.T.lX1XlXjXuXvXyXlXhX6X5X5X5X#X}.8XkX8X7XVX;X&X=X=X",
"K k k l jXc._ ' +.@.:.X...! 6Xt.c b x v k g K h.BXu 7 5 5 p p } ..^ lX7.x q.5.4.+.G | O.fXT W E b W M m M q.Q.g h G F S ; 0 ^ ` $Xk.t.D A 8 & ^ @.` @XJ K K l T 9.!.n.v.H.f.>.V.%.>.+.U #.J.Z.; | ..",
"p.T k C vXn.6.U.K.V.Z.Z. .^ +X6.k x x v 2.4.) ] SX0 = 9 r r e e F ^ $X7.v 3.p.L u.U A D @XK R c n n b n N q.pXK ` ! F ~ ~ / ] ] hX) [ ` O.G G | G D $X' 4.7.4.5.z.Q.^.l.u.D A 8 A G U H P >.J.~ @.@.",
"^.v.b.k.hX$X+XzXHXSX5X7X-X<XDXDXsX@XsXxXhXxX6X$XJX6X5X9X9XBX7XBXzX#XJXDXhXlXxXDXDXSX<X8XHXkXlXdXtXY.Y.pXU.@XhXP.P. X8XzX$XOXyXjXGX}.#X8XSXzX1X$X$X$XxX%X`.OXpXiXvXJXxX1X8X XP.P.T.,XY.@X@X$X6X{.<X-X",
"2.6.t.) D ` D A K.}.,.Z.Z.X.:.Z.J.>.3XDX}.oXj.%XoX$X$X#X8XHX{.}.oX%XK.#X+X#XHXzXf.G.G.J.-.>.#.s.uXuXg.K.f.G.J.V.G.L.+X$Xg.c.d.i.%.G.J.#X6XJX$XaXoX%X6XqX$X$XjXiXs.f.>.>.L.J.K.U.fXfXt.j.K.L.,...:.:.",
"_ h j A A j A * H.P.8 7 r 3 6 p 7 * >.+X[ s.[ s.d.g.s.#.K.K.* D _ ' ' #.] ;.}.s.j D S F F ^ D h [ x._ [ ^ ~ F : S ^ f.j.J ' K P 8 0 , Q h.aXw.w.d.k.;.;.h.k.tXtXJ ] ] @.` ' K K v.Y.` ] } w 5 3 o # ",
"@X%XK.G.L.L.P.V.DXLX..*.N.a F.S.$.#.kXxXOXuXyXyX@X$X+XJ.8XDX#.K.U.i.u.U.U.j.zX8X;.V.%.$.:.@.-.;.oXsXf.f.>.~ ~ ~ ^ @.+XkXH.@XH.G.Z.} ~ ..#XhXOX%Xb._.h.h.%XoXjXsX>.>.#.f.u.g.i.4.U.hX>.<.C.*.s a F.N.",
"V.I.X.Z.;XC.'.S.'.'.[.'.=X7XLXFXkX@X@XOX^.iXiXJXhX3X<X X-XVX|.-X>XlXGXyXb.#X8X|.A.|.>XkXDX<X5X].{.}.>.J.8XzX8X.X XL.P.P.}.3X,X3XKX;X;X;X7X;X:.J.h.}.HX}.#X+XG.#X2X-X8X3XFX,X+XG.{.{.{.|.|.SXKX7XCXCX",
"O.G % :.'.# # 5 - @ @ i ~ >.kX+.D ` J h g g f @Xk.* + + $ 7 8 0 S 1Xs.h [ @.0 9 = 8 O.g.+X! / ; ; ~ F : ^ }.5X@.Q S > * * ! @.P. XF r 5 5 = $ , * h.JXD ` ^ ^ : ; 0 G I.>XG | 7 @ = @ , S L.<X! ; $ ",
"U.` D 2X|.~ o.......~ ..Q {.SX@./ -.O.` [ ' ' kX}.~ ~ ~ ~ / #.^ / 9X}.^ G.V.X.=.i  .h.oX,X` @.8 e w } e ..&X<X~ Q i Q Q ..<.*.Z.L.X.~ 9 = 9 u ; * f.GXf.s.j Q > Q / @.f.>X$.e @ # - @ = ~ G.P.^ F 9 ",
"m.v.U.#X*X*X*X2XLXFXDXDX6XhX6X6X7X2XSXJX3XhXK.#XBX0XHX9X8XzXsX$X5X9XSXSXKXSXKXKXVXBX9XDXhX,X1X+X8X7XCX;X;XCX7X7X5X5X9XHXZXZX4XVXKX2X;XBXBX9X>X1XyXdXGXDXkXK.<XHXzXDXDX>X3X>XP.L.7XCXVX7X8X8XSXSXNX7X",
"x k J : 4 4 4 F ,Xu.t.7.x.6.K g.f.%.3X+X^ ` * + , = 8 ~ f.T.P u.^ 0 8 | &.@.%.1X^ S } $.O.i.5.5.k.6X>.>.B.} e ..>.>.}.#XS 0 2 t } } ~ / #.yX2.v T 4.' ` ` #.T.sX+.u.#.%.%.%.u.%.+X}.G.J.{.K.K.f.f.G.",
"E c J A 4 % q 4 3XK.d.s.c.c.c.c.U.G.3XK.D ! + % e 0 7 ~ J.T.f ' @.8 ; & 8 8 %.>XA 8 ~ e G ' R k _ 6X! :.X.7 $ 7 S ` f.}.S } 7 r e ; , S [ Y.g k g l * + * D H.sXP H G G O.O.U H j.g.D ] #.` ` A ] -.",
"z.tX@X*X'.D.[.[.:X'.=X7X9XzX+X+X#X+XDXSXkX8X2XBX-X*XS.|.;X7X>.|.*X7X=X[.:X'.VXKX;X-X=XXX{.K.T.g.%XHX X2X&XA.S.&X-X;X2X8X|.*XV.|.4XXX|.{..XDX+X+XH.+XG.Z.J.J..XSX>X+X>X XG.G.L.}.,XlXhXDX1XzXSXHX7XVX",
"k _ }.-Xu a w 1 1 6 a s <.5X@.] @.^ #.#.@.^ G.2X| F 8 } } 9 ; 9 C.HXN.].=.N.o.F.X. .=.ZX0XJ.f.G.j.;.f.V.|.KX[.X.o.*.V.V.@.~ ^ 5XXX=.(  .~ ~ | V.L.5X XZ.-.-.( @.h.J.f.SX2X@. X}.K.oX@Xj.t.SX|.C.A.A."
};
